<svg height="30" viewBox="0 0 100 30" width="100" xmlns="http://www.w3.org/2000/svg"><g fill="none" fill-rule="evenodd"><rect fill="#000" height="30" rx="4.2" width="100"/><g fill="#fff"><g transform="translate(31.077778 13.5)"><path d="m60.265437 6.189c0 .2865-.0187963.528-.0586444.72525h-4.8088445c.0187963.711.2511186 1.25475.6977186 1.62975.4052481.33525.9292889.50325 1.572874.50325.7120037 0 1.3616037-.11325 1.9457926-.3405l.2511186 1.11c-.6826815.297-1.4886667.44475-2.4187075.44475-1.1187555 0-1.9969185-.3285-2.6359925-.98475-.6375704-.65625-.9571075-1.5375-.9571075-2.643 0-1.08525.2969815-1.989.8916963-2.70975.6225334-.7695 1.4638556-1.15425 2.522463-1.15425 1.0398111 0 1.827.38475 2.3615667 1.15425.4232926.61125.6360666 1.36725.6360666 2.265zm-1.5285148-.41475c.0105259-.474-.0939815-.8835-.3112666-1.22925-.2774334-.44475-.7037334-.66675-1.2773963-.66675-.5240408 0-.9503408.21675-1.2758926.65175-.2669074.34575-.4255482.7605-.4744186 1.2435h3.3389741z"/><path d="m53.0965296 4.33725c-.1586407-.02925-.3278074-.04425-.5052444-.04425-.5638889 0-.999963.21225-1.3067185.6375-.2669074.375-.4007371.849-.4007371 1.42125v3.77625h-1.6021963l.0150371-4.9305c0-.8295-.0203-1.58475-.0601482-2.26575h1.3961889l.0586445 1.377h.0443592c.1691667-.47325.4360741-.85425.8014741-1.14.3571296-.25725.7428296-.3855 1.1586037-.3855.1481148 0 .2819444.0105.400737.02925z"/><path d="m47.8861963 6.47025c0 1.10625-.3172815 2.0145-.9503407 2.72475-.6638852.73125-1.5450556 1.09575-2.6435112 1.09575-1.0586074 0-1.9014333-.35025-2.5299814-1.05075-.6285482-.7005-.9428223-1.58475-.9428223-2.6505 0-1.11525.3232963-2.02875.9721445-2.739.6473444-.711 1.5209963-1.0665 2.6194518-1.0665 1.0586074 0 1.9104556.35025 2.5532889 1.0515.6150148.68025.9217704 1.5585.9217704 2.63475zm-1.6630963.05175c0-.66375-.1421-1.233-.4300593-1.70775-.3360777-.5745-.8165111-.861-1.4390444-.861-.644337 0-1.1337926.28725-1.4698704.861-.2879592.4755-.4300592 1.05375-.4300592 1.73775 0 .66375.1421 1.233.4300592 1.707.3466037.5745.8307963.861 1.4555852.861.6120074 0 1.0924408-.2925 1.4390445-.876.2954777-.48375.4443444-1.059.4443444-1.722z"/><path d="m39.9143111 4.131h-1.7668518v3.49425c0 .88875.3112666 1.33275.9353037 1.33275.2864555 0 .5240407-.02475.7120037-.07425l.0443592 1.21425c-.3157778.11775-.7315518.177-1.2465703.177-.6330593 0-1.1277778-.19275-1.4849075-.5775-.3556259-.3855-.5345666-1.032-.5345666-1.94025v-3.62775h-1.0525926v-1.2h1.0525926v-1.31775l1.5743778-.474v1.79175h1.7668518z"/><path d="m34.6145074 7.329c0 .849-.2954778 1.53975-.8886889 2.073-.6518555.58275-1.5593407.87375-2.7254629.87375-1.0766519 0-1.9397778-.207-2.5931371-.62175l.3714148-1.33275c.7037334.4245 1.4758852.6375 2.3172074.6375.6037371 0 1.0736445-.1365 1.411226-.408.3360777-.2715.5037407-.636.5037407-1.0905 0-.405-.1383407-.74625-.4157741-1.023-.2759296-.27675-.7368148-.534-1.3804-.77175-1.7518148-.65175-2.6269703-1.6065-2.6269703-2.862 0-.8205.3067555-1.49325.9210185-2.01675.6120074-.52425 1.4285185-.786 2.4495333-.786.9104926 0 1.6668556.15825 2.2705926.474l-.400737 1.3035c-.5638889-.306-1.2014593-.459-1.9149667-.459-.5638889 0-1.0044741.13875-1.3202518.41475-.2669075.24675-.4007371.5475-.4007371.90375 0 .3945.1526259.72075.4593815.97725.2669074.237.7518518.4935 1.4555852.77025.8608704.34575 1.4931778.75 1.8999296 1.2135.4052482.462.6074963 1.04025.6074963 1.73025z"/><path d="m25.3366556 6.441c0 1.224-.3315667 2.1915-.9954519 2.90175-.5932111.63225-1.3307778.948-2.2111963.948-.9503407 0-1.6330222-.3405-2.0480444-1.0215h-.0300741v3.79125h-1.6029482v-7.76025c0-.7695-.0203-1.55925-.0593963-2.36925h1.4097223l.0894703 1.14075h.0300741c.5338148-.8595 1.345063-1.2885 2.4344963-1.2885.8503445 0 1.5608445.33525 2.1307482 1.0065.5676481.672.8526 1.5555.8526 2.65125zm-1.6330223.0585c0-.7005-.1586407-1.278-.4759222-1.7325-.3466037-.474-.8104963-.711-1.3946852-.711-.3962259 0-.7548592.132-1.0766518.39225-.3217926.2625-.5315593.60525-.6300519 1.02975-.0488703.198-.0744333.36-.0744333.4875v1.2c0 .5235.1608963.96525.4811852 1.326.3217926.36.7398222.54075 1.2555926.54075.603737 0 1.0736444-.2325 1.4097222-.696.3368296-.46425.5052444-1.07625.5052444-1.83675z"/><path d="m17.0384667 6.441c0 1.224-.3315667 2.1915-.9947 2.90175-.593963.63225-1.3315297.948-2.2119482.948-.9503407 0-1.6330222-.3405-2.0487963-1.0215h-.0300741v3.79125h-1.6029481v-7.76025c0-.7695-.0203-1.55925-.0593963-2.36925h1.4097222l.0894704 1.14075h.0300741c.5345666-.8595 1.3458148-1.2885 2.4344963-1.2885.8510963 0 1.5615963.33525 2.1299963 1.0065.5699037.672.8541037 1.5555.8541037 2.65125zm-1.6330223.0585c0-.7005-.1578888-1.278-.4751703-1.7325-.3466037-.474-.812-.711-1.3954371-.711-.395474 0-.7548592.132-1.0759.39225-.3217926.2625-.5323111.60525-.6308037 1.02975-.0496222.198-.0744333.36-.0744333.4875v1.2c0 .5235.1608963.96525.4826889 1.326s.7398222.54075 1.2540889.54075c.603737 0 1.0736444-.2325 1.4097222-.696.3368296-.46425.5052444-1.07625.5052444-1.83675z"/><path d="m8.75531481 10.128h-1.70745555l-.9353037-2.93175h-3.25100741l-.89094445 2.93175h-1.66234444l3.22093333-9.981h1.9894zm-2.9247037-4.16175-.84583333-2.60625c-.08947037-.26625-.25713334-.89325-.50449259-1.88025h-.03007408c-.09849259.4245-.25713333 1.0515-.47517037 1.88025l-.8307963 2.60625z"/></g><path d="m34.2046273 9.92857143h-2.0085208v-5.09090424h1.8693164c1.1782659 0 1.7425409.58664717 1.7425409 1.37961516 0 .59410455-.3306104.937144-.8725133 1.06391944v.04225849c.5617892.06463062 1.0042604.52947392 1.0042604 1.23295337 0 .80539696-.5791898 1.37215778-1.7350836 1.37215778zm-1.0266325-4.26562093v1.3298993h.8128543c.5568176 0 .852627-.23117876.852627-.66867834 0-.35298262-.1963776-.66122096-.8004254-.66122096zm1.8021999 2.78408825c0-.40021269-.2610082-.74076634-.7979395-.74076634h-1.0042604v1.39701571h.9669735c.5941045 0 .8352264-.26100827.8352264-.65624937zm3.7858672 1.48153268v-.4300422h-.0447443c-.131747.24360772-.4399854.50710177-.9769167.50710177-.6786215 0-1.2428965-.41512743-1.2428965-1.15340798 0-.73828054.5692466-1.10866371 1.5362201-1.19815226.3380679-.0372869.6860789-.04971586.6860789-.2510651v-.05717325c0-.34055365-.216264-.53195972-.5518461-.53195972-.3554684 0-.6164767.20383504-.6860789.46235752l-.9073144-.13174704c.1764913-.70347944.8053969-1.08380578 1.6182512-1.08380578.7581669 0 1.4989333.33558207 1.4989333 1.30504137v2.56285267zm-.0422585-1.27272606v-.504616c-.072088.07954538-.420099.12926124-.5941046.15163338-.4573859.05220166-.6885646.20632083-.6885646.53693131 0 .27343724.216264.43501379.5344455.43501379.4250706 0 .7482237-.28586621.7482237-.61896248zm2.314277-2.86363363c-.3132099 0-.5543318-.23117876-.5543318-.51207338 0-.27343724.2411219-.51207337.5543318-.51207337.31321 0 .5443887.23863613.5443887.51207337 0 .28089462-.2311787.51207338-.5443887.51207338zm.4797581.31818151v3.81817818h-.9644877v-3.81817818zm1.7052558 0 .6637068 1.24289654.6786215-1.24289654h1.0017746l-1.0788342 1.90908909 1.1061779 1.90908909h-1.0017746l-.7059652-1.21058123-.6985079 1.21058123h-1.0067462l1.0987206-1.90908909-1.0639195-1.90908909zm5.1331664 3.81817818v-.4300422h-.0447442c-.1317471.24360772-.4399854.50710177-.9769167.50710177-.6786215 0-1.2428966-.41512743-1.2428966-1.15340798 0-.73828054.5692466-1.10866371 1.5362202-1.19815226.3380678-.0372869.6860788-.04971586.6860788-.2510651v-.05717325c0-.34055365-.216264-.53195972-.551846-.53195972-.3554684 0-.6164767.20383504-.6860789.46235752l-.9073145-.13174704c.1764913-.70347944.805397-1.08380578 1.6182513-1.08380578.7581669 0 1.4989332.33558207 1.4989332 1.30504137v2.56285267zm-.0422585-1.27272606v-.504616c-.072088.07954538-.420099.12926124-.5941045.15163338-.4573859.05220166-.6885647.20632083-.6885647.53693131 0 .27343724.216264.43501379.5344455.43501379.4250706 0 .7482237-.28586621.7482237-.61896248zm4.2009941-2.47336412-.300781.83771227c-.0522017-.02982952-.1988634-.07954538-.3554684-.07954538-.4573859 0-.7730817.40021269-.7780532.82279751v2.16512578h-.9644878v-3.81817818h.9446014v.54190289h.0546875c.1093749-.38778372.4996444-.59410454.8725133-.59410454.1988635 0 .4076701.05468744.5269882.12428965zm3.3757116 1.64559502v2.10049516h-.9644878v-3.81817818h.9048287v.48472965h.0397727c.2063208-.31320993.576704-.53444551 1.0589479-.53444551.6686783 0 1.2677544.40767007 1.2677544 1.46910371v2.39879033h-.9669735v-2.35901764c0-.45490013-.2734372-.71342261-.6388488-.71342261-.4300422 0-.7009936.37784055-.7009936.97194509zm5.259942 2.10049516v-.4300422h-.0447442c-.1317471.24360772-.4399854.50710177-.9769167.50710177-.6786215 0-1.2428966-.41512743-1.2428966-1.15340798 0-.73828054.5692467-1.10866371 1.5362202-1.19815226.3380678-.0372869.6860789-.04971586.6860789-.2510651v-.05717325c0-.34055365-.216264-.53195972-.5518461-.53195972-.3554684 0-.6164767.20383504-.6860789.46235752l-.9073145-.13174704c.1764913-.70347944.805397-1.08380578 1.6182513-1.08380578.7581669 0 1.4989332.33558207 1.4989332 1.30504137v2.56285267zm-.0422584-1.27272606v-.504616c-.072088.07954538-.4200991.12926124-.5941046.15163338-.4573859.05220166-.6885647.20632083-.6885647.53693131 0 .27343724.216264.43501379.5344455.43501379.4250707 0 .7482238-.28586621.7482238-.61896248z"/><g transform="translate(9.022222 4.5)"><path d="m13.1295704 10.338c-.0218037-2.41725 1.984137-3.59325 2.0758629-3.648-1.1360481-1.65225-2.8968852-1.878-3.5156592-1.896-1.4788926-.15525-2.91342595.88275-3.66678151.88275-.76839259 0-1.9285-.86775-3.17882963-.84225-1.60896296.02475-3.11417037.954-3.9397037 2.397-1.7036963 2.94225-.43306667 7.266 1.1992037 9.64425.81651111 1.16475 1.77061111 2.46525 3.01943704 2.4195 1.22175926-.05025 1.67813333-.777 3.15251481-.777 1.46084815 0 1.88940369.777 3.16304079.74775 1.3112296-.021 2.1367629-1.17 2.9247037-2.34525.943574-1.335 1.3225074-2.64975 1.3375444-2.71725-.0308259-.0105-2.5465222-.96825-2.5713333-3.8655z"/><path d="m10.7236444 3.2295c.6571186-.81975 1.106726-1.935.9819186-3.06675-.9510926.042-2.14052226.65625-2.8254593 1.458-.60599259.7065-1.14732592 1.8645-1.00748148 2.9535 1.06838148.0795 2.16533338-.53775 2.85102218-1.34475z"/></g></g></g></svg>