<svg height="224" viewBox="0 0 233 224" width="233" xmlns="http://www.w3.org/2000/svg"><g fill="#014bd4" fill-rule="evenodd" transform="matrix(.8660254 -.5 .5 .8660254 0 90)"><path d="m50.6132234 6.09577232c-7.9933154 0-15.7587713 4.20628858-19.9240451 11.67096978l-21.95199581 39.3331275c-6.111195 10.964605-2.16922358 24.8640418 8.79082411 30.979794l61.6998279 34.4295884c.5833206.323561.9934679.888653 1.1210693 1.544888l3.8006985 19.099194c.3190035 1.595017 1.3124714 2.962175 2.7343154 3.755126 1.4081725.792952 3.1080053.920553 4.6255503.350904l18.246998-6.794774c.624336-.236974 1.317029-.182288 1.909464.14583l6.648944 3.709555c10.969162 6.115752 24.859484 2.173781 30.979794-8.786267l21.951995-39.3376848c2.962175-5.3091291 3.677655-11.4567817 2.018837-17.3082167s-5.495974-10.7048449-10.805104-13.6715772l-100.7868666-56.24031138c-3.504481-1.95503554-7.3097366-2.8801456-11.060306-2.8801456zm38.963995 146.07168768c-1.6998327 0-3.3905511-.432933-4.9126534-1.280571-2.5884852-1.44463-4.4022478-3.937414-4.9810113-6.840346l-3.5956248-18.069267-60.779275-33.9191835c-13.15661442-7.3370797-17.89153733-24.0164039-10.54990037-37.1775756l21.95199577-39.3376847c7.3461942-13.15661449 24.0300755-17.89153739 37.1775756-10.54534324l100.7868671 56.24031134c6.380069 3.5591673 10.982834 9.3832592 12.974327 16.4058927s1.130183 14.400728-2.424427 20.7716829l-21.951995 39.3376851c-7.341637 13.161171-24.030076 17.896094-37.177576 10.545343l-5.732948-3.194592-17.2626448 6.430199c-1.1438553.423818-2.3378397.633449-3.5227098.633449z" transform="matrix(.9998477 .01745241 -.01745241 .9998477 1.35496 -1.559012)"/><path d="m143.424177 88.2195891c-.378247 0-.761051-.095701-1.107397-.2916603l-90.8202878-50.6759795c-1.0982833-.6152209-1.4947591-2.0006074-.8795381-3.103448.6106638-1.1028406 2.0097219-1.4902019 3.0943336-.8795381l90.8202873 50.6805366c1.098283.6106638 1.494759 2.0006075.879538 3.0988909-.419262.7473795-1.189427 1.1711984-1.986936 1.1711984" transform="matrix(.9998477 .01745241 -.01745241 .9998477 1.072541 -1.701351)"/><path d="m135.628462 101.634091c-.378247 0-.761051-.095701-1.111955-.291661l-90.8157299-50.6759791c-1.1028406-.615221-1.4947591-2.0006075-.8840953-3.103448.615221-1.1028406 2.014279-1.4856448 3.0988908-.874981l90.8202874 50.6759795c1.098283.615221 1.494759 2.0006074.879538 3.0988906-.419262.74738-1.193984 1.171199-1.986936 1.171199" transform="matrix(.9998477 .01745241 -.01745241 .9998477 1.305499 -1.563233)"/><path d="m91.1836606 94.1804229c-.378247 0-.7610511-.0911439-1.1073977-.2871031l-53.9890584-30.1321562c-1.1028405-.6106637-1.4993163-2.0006074-.8840953-3.0988908.615221-1.1073977 2.014279-1.4902019 3.0988908-.8795381l53.9936156 30.1321561c1.0982833.6106638 1.4947591 2.0006075.8795381 3.0988908-.4192617.7473796-1.1939844 1.1666413-1.9914931 1.1666413" transform="matrix(.9998477 .01745241 -.01745241 .9998477 1.350761 -1.108554)"/></g></svg>