<svg height="30" viewBox="0 0 100 30" width="100" xmlns="http://www.w3.org/2000/svg" xmlns:xlink="http://www.w3.org/1999/xlink"><linearGradient id="a" x1="61.13659%" x2="26.378317%" y1="4.6768%" y2="71.8064%"><stop offset="0" stop-color="#00a1ff"/><stop offset=".2601" stop-color="#00beff"/><stop offset=".5122" stop-color="#00d2ff"/><stop offset=".7604" stop-color="#00dfff"/><stop offset="1" stop-color="#00e3ff"/></linearGradient><linearGradient id="b" x1="107.99803%" x2="-130.395074%" y1="49.534524%" y2="49.534524%"><stop offset="0" stop-color="#ffe000"/><stop offset=".4087" stop-color="#ffbd00"/><stop offset=".7754" stop-color="#ffa500"/><stop offset="1" stop-color="#ff9c00"/></linearGradient><linearGradient id="c" x1="86.472289%" x2="-50.625904%" y1="30.876409%" y2="136.035847%"><stop offset="0" stop-color="#ff3a44"/><stop offset="1" stop-color="#c31162"/></linearGradient><linearGradient id="d" x1="-19.128313%" x2="42.092169%" y1="-11.258423%" y2="35.199908%"><stop offset="0" stop-color="#32a071"/><stop offset=".0685" stop-color="#2da771"/><stop offset=".4762" stop-color="#15cf74"/><stop offset=".8009" stop-color="#06e775"/><stop offset="1" stop-color="#00f076"/></linearGradient><g fill="none" fill-rule="evenodd"><rect fill="#000" height="30" rx="4.210526" width="100"/><path d="m80.0503759 23.125h1.4030076v-9.37575h-1.4030076zm12.6368421-5.9985-1.6090225 4.065h-.0481203l-1.6684211-4.065h-1.51203l2.5030075 5.68125-1.4263158 3.1605h1.4631579l3.8571428-8.84175zm-7.9571428 4.9335c-.4593985 0-1.1007519-.22875-1.1007519-.7965 0-.723.7984962-1.0005 1.4879699-1.0005.6165414 0 .906767.13275 1.281203.3135-.1082706.8685-.8586466 1.4835-1.668421 1.4835zm.1691729-5.13825c-1.0157895 0-2.0676692.44625-2.5030075 1.4355l1.2451128.51825c.2661654-.51825.762406-.68775 1.2819549-.68775.7255639 0 1.4631579.43425 1.4751879 1.20675v.096c-.2541353-.14475-.7977443-.3615-1.4631579-.3615-1.3421052 0-2.7082706.73575-2.7082706 2.1105 0 1.25475 1.1 2.06325 2.3338346 2.06325.9428571 0 1.4631579-.42225 1.7894736-.91725h.0481203v.72375h1.3548873v-3.59475c0-1.66425-1.2458647-2.59275-2.8541354-2.59275zm-8.6706767 1.34625h-1.9947368v-3.21375h1.9947368c1.0488722 0 1.6451128.86625 1.6451128 1.6065 0 .72675-.5962406 1.60725-1.6451128 1.60725zm-.0360902-4.51875h-3.3616541v9.37575h1.4030075v-3.552h1.9586466c1.5548872 0 3.0834586-1.1235 3.0834586-2.91225s-1.5285714-2.9115-3.0834586-2.9115zm-18.3315789 8.31225c-.969173 0-1.7804512-.80925-1.7804512-1.92075 0-1.1235.8112782-1.9455 1.7804512-1.9455.9571428 0 1.7082706.822 1.7082706 1.9455 0 1.1115-.7511278 1.92075-1.7082706 1.92075zm1.6112782-4.41h-.0488722c-.3150376-.37425-.9203008-.7125-1.6834587-.7125-1.5992481 0-3.0646616 1.401-3.0646616 3.20175 0 1.788 1.4654135 3.17775 3.0646616 3.17775.7631579 0 1.3684211-.33825 1.6834587-.72525h.0488722v.45975c0 1.22025-.6541354 1.87275-1.7082707 1.87275-.8601504 0-1.3932331-.6165-1.6105263-1.13625l-1.2240602.50775c.3511278.846 1.2842105 1.88475 2.8345865 1.88475 1.6473684 0 3.0406015-.96675 3.0406015-3.3225v-5.72775h-1.3323308zm2.3015037 5.4735h1.4052632v-9.3765h-1.4052632zm3.4766917-3.093c-.0368421-1.23225.956391-1.86075 1.6714286-1.86075.5571429 0 1.0293233.2775 1.1872181.6765zm4.3601504-1.0635c-.2661654-.7125-1.0781955-2.0295-2.737594-2.0295-1.6473684 0-3.0157894 1.29225-3.0157894 3.18975 0 1.788 1.3563909 3.18975 3.1736842 3.18975 1.4654135 0 2.3135338-.894 2.6646616-1.41375l-1.0902255-.72525c-.3631579.53175-.8601504.882-1.5744361.882-.7150376 0-1.2240602-.32625-1.550376-.966l4.2759399-1.76475zm-34.0661654-1.05075v1.353h3.2466165c-.0969924.76125-.3518797 1.317-.7390977 1.70325-.4729323.47175-1.2112782.9915-2.5075188.9915-1.9984962 0-3.5609023-1.60725-3.5609023-3.60075 0-1.99425 1.5624061-3.60075 3.5609023-3.60075 1.0781955 0 1.8654135.423 2.4466165.96675l.9571429-.95475c-.8112782-.77325-1.8894737-1.36575-3.4037594-1.36575-2.737594 0-5.0390977 2.22375-5.0390977 4.9545s2.3015037 4.95375 5.0390977 4.95375c1.4774436 0 2.5924812-.48375 3.4646617-1.38975.8962406-.894 1.174436-2.15025 1.174436-3.16575 0-.31425-.0240601-.60375-.0721804-.84525zm8.3300752 4.14375c-.9691729 0-1.8052632-.79725-1.8052632-1.93275 0-1.14825.8360903-1.9335 1.8052632-1.9335s1.8045113.78525 1.8045113 1.9335c0 1.1355-.8353384 1.93275-1.8045113 1.93275zm0-5.1225c-1.7684211 0-3.2105263 1.341-3.2105263 3.18975 0 1.83675 1.4421052 3.18975 3.2105263 3.18975 1.768421 0 3.2097744-1.353 3.2097744-3.18975 0-1.84875-1.4413534-3.18975-3.2097744-3.18975zm7.0022556 5.1225c-.9691729 0-1.8045112-.79725-1.8045112-1.93275 0-1.14825.8353383-1.9335 1.8045112-1.9335.969173 0 1.8045113.78525 1.8045113 1.9335 0 1.1355-.8353383 1.93275-1.8045113 1.93275zm0-5.1225c-1.768421 0-3.2097744 1.341-3.2097744 3.18975 0 1.83675 1.4413534 3.18975 3.2097744 3.18975 1.7684211 0 3.2097745-1.353 3.2097745-3.18975 0-1.84875-1.4413534-3.18975-3.2097745-3.18975z" fill="#fff"/><path d="m32.7228065 10.6428571h-2.0085208v-5.09090419h1.8693164c1.1782659 0 1.742541.58664716 1.742541 1.37961516 0 .59410455-.3306105.93714399-.8725134 1.06391944v.04225848c.5617892.06463062 1.0042604.52947393 1.0042604 1.23295337 0 .80539694-.5791898 1.37215774-1.7350836 1.37215774zm-1.0266325-4.26562089v1.3298993h.8128543c.5568177 0 .852627-.23117876.852627-.66867834 0-.35298262-.1963776-.66122096-.8004253-.66122096zm1.8022 2.78408825c0-.40021268-.2610083-.74076633-.7979396-.74076633h-1.0042604v1.39701571h.9669735c.5941045 0 .8352265-.26100827.8352265-.65624938zm3.7858671 1.48153264v-.4300422h-.0447443c-.131747.2436078-.4399854.5071018-.9769167.5071018-.6786215 0-1.2428965-.4151274-1.2428965-1.15340796 0-.73828055.5692466-1.10866372 1.5362201-1.19815227.3380679-.0372869.6860789-.04971586.6860789-.2510651v-.05717324c0-.34055365-.216264-.53195972-.551846-.53195972-.3554685 0-.6164767.20383503-.6860789.46235751l-.9073145-.13174703c.1764913-.70347944.8053969-1.08380579 1.6182513-1.08380579.7581669 0 1.4989332.33558207 1.4989332 1.30504137v2.56285263zm-.0422585-1.27272602v-.50461599c-.072088.07954538-.420099.12926124-.5941045.15163338-.457386.05220165-.6885647.20632082-.6885647.5369313 0 .27343724.216264.43501379.5344455.43501379.4250706 0 .7482237-.2858662.7482237-.61896248zm2.3142771-2.86363363c-.3132099 0-.5543319-.23117876-.5543319-.51207337 0-.27343724.241122-.51207338.5543319-.51207338s.5443887.23863614.5443887.51207338c0 .28089461-.2311788.51207337-.5443887.51207337zm.479758.31818152v3.81817813h-.9644877v-3.81817813zm1.7052559 0 .6637067 1.24289654.6786215-1.24289654h1.0017746l-1.0788342 1.90908908 1.106178 1.90908905h-1.0017746l-.7059653-1.21058119-.6985078 1.21058119h-1.0067462l1.0987205-1.90908905-1.0639194-1.90908908zm5.1331664 3.81817813v-.4300422h-.0447443c-.131747.2436078-.4399854.5071018-.9769167.5071018-.6786215 0-1.2428965-.4151274-1.2428965-1.15340796 0-.73828055.5692466-1.10866372 1.5362201-1.19815227.3380678-.0372869.6860789-.04971586.6860789-.2510651v-.05717324c0-.34055365-.216264-.53195972-.5518461-.53195972-.3554684 0-.6164767.20383503-.6860789.46235751l-.9073145-.13174703c.1764914-.70347944.805397-1.08380579 1.6182513-1.08380579.7581669 0 1.4989333.33558207 1.4989333 1.30504137v2.56285263zm-.0422585-1.27272602v-.50461599c-.072088.07954538-.4200991.12926124-.5941046.15163338-.4573859.05220165-.6885647.20632082-.6885647.5369313 0 .27343724.216264.43501379.5344456.43501379.4250706 0 .7482237-.2858662.7482237-.61896248zm4.200994-2.47336411-.300781.83771226c-.0522016-.02982951-.1988634-.07954537-.3554684-.07954537-.4573859 0-.7730816.40021268-.7780532.82279751v2.16512573h-.9644877v-3.81817813h.9446013v.54190289h.0546875c.1093749-.38778372.4996444-.59410455.8725134-.59410455.1988634 0 .40767.05468745.5269881.12428966zm3.3757116 1.64559502v2.10049511h-.9644877v-3.81817813h.9048287v.48472965h.0397726c.2063209-.31320993.576704-.53444552 1.0589479-.53444552.6686783 0 1.2677545.40767007 1.2677545 1.46910372v2.39879028h-.9669735v-2.35901759c0-.45490014-.2734373-.71342262-.6388489-.71342262-.4300422 0-.7009936.37784055-.7009936.9719451zm5.2599421 2.10049511v-.4300422h-.0447443c-.131747.2436078-.4399854.5071018-.9769167.5071018-.6786215 0-1.2428965-.4151274-1.2428965-1.15340796 0-.73828055.5692466-1.10866372 1.5362201-1.19815227.3380679-.0372869.6860789-.04971586.6860789-.2510651v-.05717324c0-.34055365-.216264-.53195972-.5518461-.53195972-.3554684 0-.6164767.20383503-.6860789.46235751l-.9073144-.13174703c.1764913-.70347944.8053969-1.08380579 1.6182512-1.08380579.7581669 0 1.4989333.33558207 1.4989333 1.30504137v2.56285263zm-.0422585-1.27272602v-.50461599c-.072088.07954538-.420099.12926124-.5941046.15163338-.4573859.05220165-.6885646.20632082-.6885646.5369313 0 .27343724.216264.43501379.5344455.43501379.4250706 0 .7482237-.2858662.7482237-.61896248z" fill="#fff"/><g transform="translate(6.766917 6.25)"><path d="m.3481203.298425c-.21879699.23025-.3481203.58875-.3481203 1.05375v16.58625c0 .465.12932331.82275.3481203 1.05375l.05488722.054 9.31578947-9.291v-.1095-.11025l-9.31578947-9.29175z" fill="url(#a)"/><path d="m9.71879699 9.535425v.11025.1095l3.10451131 3.09825.0714285-.03975 3.6781955-2.08575c1.0511279-.59475 1.0511279-1.56975 0-2.16525l-3.6781955-2.085-.0706766-.03975z" fill="url(#b)"/><path d="m.3481203 18.992175c.34586466.366.91804511.411 1.56240602.0465l10.98421048-6.225-3.17593981-3.168z" fill="url(#c)"/><path d="m.3481203.298425 9.37067669 9.34725 3.17593981-3.16875-10.98421048-6.225c-.30225564-.171-.58872181-.252-.84285715-.252-.28796992 0-.53609022.10425-.71954887.2985" fill="url(#d)"/></g></g></svg>