<svg height="383" viewBox="0 0 1920 383" width="1920" xmlns="http://www.w3.org/2000/svg" xmlns:xlink="http://www.w3.org/1999/xlink"><linearGradient id="a" x1="-.001129%" x2="100.001053%" y1="50.002478%" y2="50.002478%"><stop offset="0" stop-color="#3d3e3e"/><stop offset="1" stop-color="#2b457b"/></linearGradient><mask id="b" fill="#fff"><path d="m0 2.49356199c0 .88525359.25013788 1.75487356.72500901 2.503333l20.78294029 32.89508541c.6468409 1.0240019 1.7724613 1.643484 2.9821125 1.643484h62.8100125c1.1060784 0 2.0030572-.8969788 2.0030572-2.0030572v-1.7236063l-30.2608209-34.51121065c-.6702913-.81685651-1.6708428-1.28977344-2.7280662-1.28977344l-56.3142444-.00781681z" fill="#fff" fill-rule="evenodd"/></mask><g fill="none" fill-rule="evenodd" transform="translate(0 .317161)"><g fill="#dae5ee"><path d="m0 245.682839c296.055541-3.55445 452.668281-5.331676 469.838219-5.331676s32.856489 1.35373 47.059653 4.061189l1.102128 138.270487h-518z"/><path d="m1417 231.680724 503 21.531205v129.47091h-503z"/><path d="m1167.99986 242.78841c-140.39771 17.112948-281.074858 43.604113-422.185844 34.014843-76.692664-5.211857-152.709175-21.050666-228.813625-32.390901v138.193361h899.998049v-150.924989c-82.51033-5.542117-166.70127 1.076766-248.99858 11.107686"/></g><g transform="translate(596.000535 23.5694)"><rect fill="#fff" height="57" rx="3" stroke="#a4cbf2" width="52" x=".5" y=".5"/><path d="m8.21688667 26.3233731h15.74232963v-20.77380669h-15.74232963z" fill="#2675cb"/><g fill="#b7d5f2"><path d="m8.21688667 34.8924121h37.70662763v-3.6339436h-37.70662763z"/><path d="m8.21688667 43.463236h37.70662763v-3.6339436h-37.70662763z"/><path d="m8.21688667 52.0322751h24.06684503v-3.6339437h-24.06684503z"/><path d="m27.0702005 9.18351008h18.8533138v-3.63394367h-18.8533138z"/><path d="m27.0702005 17.7525491h18.8533138v-3.6339436h-18.8533138z"/><path d="m27.0702005 26.3233731h18.8533138v-3.6339437h-18.8533138z"/></g></g><g transform="translate(585.000535 14.5694)"><path d="m79.2827984 130.045434h-73.10366629c-3.41262293 0-6.17913211-2.766509-6.17913211-6.180916v-37.8744035c0-3.4126229 2.76650918-6.1809169 6.17913211-6.1809169h73.10366629c3.412623 0 6.180917 2.768294 6.180917 6.1809169v37.8744035c0 3.414407-2.768294 6.180916-6.180917 6.180916" fill="#fff" stroke="#a4cbf2"/><path d="m18.0009154 97.2003667h37.9154544v-3.3751412h-37.9154544z" fill="#b7d5f2"/><path d="m18.0009154 106.615422h37.9154544v-3.375141h-37.9154544z" fill="#b7d5f2"/><path d="m18.0009154 116.032262h18.9586196v-3.375141h-18.9586196z" fill="#7d97cb"/><g transform="translate(323 155)"><rect fill="#fff" height="45" rx="3" stroke="#a4cbf2" width="41" x=".5" y=".5"/><path d="m21.813777 3.09801602c-5.9542417 0-10.7804616 4.82621988-10.7804616 10.78046158s4.8262199 10.7822464 10.7804616 10.7822464c5.9542416 0 10.7804615-4.8280047 10.7804615-10.7822464h-10.7804615z" fill="#2675cb"/><g fill="#b7d5f2"><path d="m7.06364246 29.8737197h29.49991204v-2.8432575h-29.49991204z"/><path d="m7.06364246 35.5602347h29.49991204v-2.8432575h-29.49991204z"/><path d="m7.06364246 41.2467497h18.83011084v-2.8432575h-18.83011084z"/></g></g><g transform="translate(271 155)"><rect fill="#fff" height="45" rx="3" stroke="#a4cbf2" width="41" x=".5" y=".5"/><path d="m6.68202228 20.7174667h12.31721282v-16.25279515h-12.31721282z" fill="#2675cb"/><g fill="#b7d5f2"><path d="m6.68380712 27.4213432h29.49991208v-2.8432575h-29.49991208z"/><path d="m6.68380712 34.1270044h29.49991208v-2.8432575h-29.49991208z"/><path d="m6.68202228 40.8308809h18.83011082v-2.8432575h-18.83011082z"/><path d="m21.4337631 7.3061442h14.7499561v-2.84325749h-14.7499561z"/><path d="m21.4337631 14.0118055h14.7499561v-2.8432575h-14.7499561z"/><path d="m21.4337631 20.7174667h14.7499561v-2.8432574h-14.7499561z"/></g></g><g transform="translate(218 155)"><rect fill="#fff" height="45" rx="3" stroke="#a4cbf2" width="41" x=".5" y=".5"/><g fill="#2675cb"><path d="m6.78474519 39.4150121h29.00000001v-2.8432575h-29.00000001z"/><path d="m7.96064156 34.7351495h3.83935614v-9.547134h-3.83935614z"/><path d="m13.6237259 34.7351495h3.8393561v-17.5325288h-3.8393561z"/><path d="m19.2868101 34.7351495h3.8393562v-28.55394442h-3.8393562z"/><path d="m24.9512554 34.7351495h3.8379951v-21.4538325h-3.8379951z"/><path d="m30.6143397 34.7351495h3.8379951v-28.55394442h-3.8379951z"/></g></g><g transform="translate(165 155)"><rect fill="#fff" height="45" rx="3" stroke="#a4cbf2" width="41" x=".5" y=".5"/><path d="m20.6719506 3.85076659c-5.4019238 0-9.7804615 4.37853773-9.7804615 9.78046151 0 5.4019238 4.3785377 9.7820808 9.7804615 9.7820808s9.7804615-4.380157 9.7804615-9.7820808h-9.7804615z" fill="#2675cb"/><g fill="#b7d5f2"><path d="m6.92235161 28.6261133h29.49991199v-2.8432575h-29.49991199z"/><path d="m6.92235161 34.3126283h29.49991199v-2.8432575h-29.49991199z"/><path d="m6.92056676 39.9991433h18.83011084v-2.8432575h-18.83011084z"/></g></g><path d="m512.969398 47.5268428h-131.282462c-3.996267 0-7.237545-3.2412779-7.237545-7.237545v-33.05175283c0-3.99626712 3.241278-7.23754497 7.237545-7.23754497h131.282462c3.998052 0 7.237545 3.24127785 7.237545 7.23754497v33.05175283c0 3.9962671-3.239493 7.237545-7.237545 7.237545" fill="#fff" stroke="#a4cbf2"/><path d="m513.362956.00035697h-132.067794c-3.780301 0-6.844879 3.06457823-6.844879 6.84487915v4.39250268h145.757552v-4.39250268c0-3.78030092-3.064578-6.84487915-6.844879-6.84487915" fill="#2675cb"/><path d="m386.138397 22.7478448h114v-2.998539h-114z" fill="#b7d5f2"/><path d="m386.138397 31.4793047h114v-2.998539h-114z" fill="#b7d5f2"/><path d="m386.138397 40.2107647h42.75v-2.998539h-42.75z" fill="#b7d5f2"/><g fill="#fff"><path d="m387.720068 5.61922635c0 .78711648-.63719 1.42430601-1.424306 1.42430601-.785332 0-1.422522-.63718953-1.422522-1.42430601 0-.78711649.63719-1.42430602 1.422522-1.42430602.787116 0 1.424306.63718953 1.424306 1.42430602"/><path d="m393.90509 5.61922635c0 .78711648-.63719 1.42430601-1.424306 1.42430601-.785332 0-1.422522-.63718953-1.422522-1.42430601 0-.78711649.63719-1.42430602 1.422522-1.42430602.787116 0 1.424306.63718953 1.424306 1.42430602"/><path d="m400.090112 5.61922635c0 .78711648-.63719 1.42430601-1.424306 1.42430601-.785332 0-1.422521-.63718953-1.422521-1.42430601 0-.78711649.637189-1.42430602 1.422521-1.42430602.787116 0 1.424306.63718953 1.424306 1.42430602"/><path d="m585.950748 63.7755813h-148.938144c-4.244361 0-7.685541 3.4393956-7.685541 7.6837561v54.8554146c0 4.244361 3.44118 7.683756 7.685541 7.683756h148.938144c4.244361 0 7.683757-3.439395 7.683757-7.683756v-54.8554146c0-4.2443605-3.439396-7.6837561-7.683757-7.6837561" stroke="#a4cbf2"/></g><path d="m455.346709 82.1323513c0 4.5816962-3.714262 8.294173-8.294173 8.294173-4.581697 0-8.295958-3.7124768-8.295958-8.294173 0-4.5816961 3.714261-8.294173 8.295958-8.294173 4.579911 0 8.294173 3.7124769 8.294173 8.294173" fill="#2675cb"/><path d="m459.814532 77.3832367h120v-2.2346254h-120z" fill="#b7d5f2"/><path d="m459.814532 83.8872106h120v-2.2346255h-120z" fill="#b7d5f2"/><path d="m459.814532 90.3929692h50.270054v-2.2346254h-50.270054z" fill="#b7d5f2"/><path d="m455.346709 114.197264c0 4.581696-3.714262 8.294173-8.294173 8.294173-4.581697 0-8.295958-3.712477-8.295958-8.294173 0-4.581697 3.714261-8.294173 8.295958-8.294173 4.579911 0 8.294173 3.712476 8.294173 8.294173" fill="#2675cb"/><path d="m459.814532 109.447971h120v-2.234626h-120z" fill="#b7d5f2"/><path d="m459.814532 115.953729h120v-2.234625h-120z" fill="#b7d5f2"/><path d="m459.814532 122.457703h50.270054v-2.234625h-50.270054z" fill="#b7d5f2"/></g><g transform="translate(834.694118)"><path d="m4.21023464 124.915608h75.47615746c1.8535302 0 3.3544959-1.500966 3.3544959-3.354496v-117.35087736c0-1.85353013-1.5009657-3.35449589-3.3544959-3.35449589h-75.47615746c-1.85181865 0-3.35449589 1.50096576-3.35449589 3.35449589v117.35087736c0 1.85353 1.50267724 3.354496 3.35449589 3.354496" fill="#fff"/><path d="m4.21023464 1.71147749c-1.37773939 0-2.49875715 1.11930629-2.49875715 2.49875715v117.35087736c0 1.379451 1.12101776 2.498757 2.49875715 2.498757h75.47615746c1.3777394 0 2.4987572-1.119306 2.4987572-2.498757v-117.35087736c0-1.37945086-1.1210178-2.49875715-2.4987572-2.49875715zm75.47615746 124.05986951h-75.47615746c-2.32247496 0-4.21023464-1.88776-4.21023464-4.210235v-117.35087736c0-2.32247496 1.88775968-4.21023464 4.21023464-4.21023464h75.47615746c2.322475 0 4.2102347 1.88775968 4.2102347 4.21023464v117.35087736c0 2.322475-1.8877597 4.210235-4.2102347 4.210235z" fill="#a4cbf2"/><path d="m54.3704213 76.6843994c-1.2433598.0481383-2.3107616.8996611-2.6339562 2.101246l-.8582554 2.9595014-3.4034267-1.1246105c-.2383138-.0782913-.4898043-.1084702-.7398753-.0887851-.7652142.0582691-1.4196616.5724779-1.6573208 1.3021806l-2.8411213 8.5233641c-.2114657.6449701-.0627805 1.3537626.3900472 1.8593822.4528277.5056197 1.1410026.7312508 1.8052959.5919003.6642932-.1393505 1.203783-.6225119 1.4152486-1.267482l2.249221-6.7180682 1.7165108.5623053-4.7056072 16.1292825c-.3708611.999395-.1511482 2.122291.5690375 2.908204.7201858.785914 1.8196722 1.102613 2.8475751.820226 1.027903-.282388 1.8112765-1.116352 2.02887-2.159894l6.6292831-22.7289709c.2679117-.8772389.0958744-1.8298549-.4619553-2.5579694-.5578297-.7281146-1.4328358-1.1421657-2.349571-1.1118123zm-26.9906528 19.9470395c-1.142735 0-2.1900538.2669707-3.0186914.7102803-.8286377.4433096-1.4406645.9391327-2.2492211 1.5093457-.8581059.6047604-1.0634831 1.7906481-.4587227 2.6487541.6047603.858106 1.7906478 1.063483 2.6487537.458722.8990871-.634043 1.4560397-1.069824 1.8348909-1.272585.3788512-.202667.5836052-.266355 1.2429906-.266355.9588093 0 1.3160292.385492 2.2788161 1.331775.9627869.946378 2.5283461 2.456386 4.9127723 2.456386 3.2466583 0 5.2200889-1.049604 6.8364483-2.308411.5966115-.389622.9240992-1.081094.8475419-1.789536-.0765574-.7084421-.5442066-1.3139878-1.2102812-1.567159-.6660747-.2531713-1.4178767-.1111321-1.9456718.3675989-1.4196913 1.1056701-1.8926784 1.5093461-4.5280372 1.5093461-.9497878 0-1.3145537-.413573-2.2788161-1.361371-.9642624-.9477981-2.5247388-2.4267911-4.9127723-2.4267911z" fill="#2675cb" fill-rule="nonzero"/><path d="m55.3423362 54.8391619h13.2964687v-25.7868314h-13.2964687z" fill="#2675cb"/><path d="m42.0989234 54.8391619h13.2981801v-5.8429842h-13.2981801z" fill="#79b9ff"/><path d="m24.9516304 54.8391619h13.2964686v-22.6873457h-13.2964686z" fill="#2675cb"/><path d="m11.7065061 54.8374504h13.2981801v-13.272508h-13.2981801z" fill="#79b9ff"/><path d="m79.503264 56.2631111h-74.93704205v-1.7114775h74.93704205l-.0051344.8557388z" fill="#b6d8fe"/></g><g transform="translate(1241.481747 45.682839)"><path d="m60.9401727 23.1690364-37.8510363-21.12134373c-4.5371268-2.53298669-10.2671534-.90708307-12.8001401 3.63004377l-8.24247565 14.77176226c-2.53298669 4.5371268-.90537159 10.268865 3.63004377 12.8001402l23.17169378 12.9302124 1.4273722 7.1728022c.3525644 1.7713792 2.207806 2.8068231 3.9004572 2.1769994l6.8544674-2.5535244 2.4970457 1.3948541c4.5371268 2.5312752 10.2671535.9053716 12.8001402-3.6317552l8.2424756-14.7717623c2.5329867-4.5371268.9053716-10.2671535-3.6300438-12.7984287" fill="#fff"/><path d="m18.5194915 1.71224309c-3.0019315 0-5.9182891 1.57969372-7.4825796 4.38309386l-8.24418706 14.77176225c-2.29509132 4.1178148-.81466329 9.3378212 3.30144009 11.634624l23.17169377 12.9302125c.2190691.1215149.3731021.3337381.4210235.5801908l1.4273722 7.1728022c.1198034.5990171.4929055 1.1124604 1.0268865 1.4102575.5288466.2977971 1.1672277.3457184 1.7371497.1317837l6.8527559-2.5518129c.2344724-.0889968.4946169-.0684591.717109.0547673l2.4970457 1.3931427c4.1195263 2.2968028 9.3361097.8163747 11.634624-3.2997287l8.2441871-14.7734737c1.1124603-1.9938713 1.3811623-4.3026544.7581845-6.5001915s-2.0640418-4.0202606-4.0579131-5.1344325l-37.8510363-21.12134374c-1.3161262-.73422384-2.7452099-1.08165377-4.1537559-1.08165377zm14.6331326 54.85798811c-.6383811 0-1.2733392-.1625904-1.8449727-.4809252-.9721192-.5425383-1.6532873-1.4787165-1.8706449-2.5689277l-1.3503558-6.7860083-22.82597531-12.7385269c-4.94103553-2.7554788-6.71926065-9.0194864-3.9620704-13.9622334l8.24418709-14.77347377c2.75890172-4.94103553 9.02462082-6.71926064 13.96223342-3.96035892l37.8510362 21.12134379c2.3960685 1.3366639 4.1246608 3.5239321 4.8725765 6.1613189.7479156 2.6373869.4244464 5.4082689-.9105061 7.8009145l-8.2441871 14.7734737c-2.7571902 4.942747-9.0246208 6.7209721-13.9622334 3.9603589l-2.1530386-1.1997457-6.4830768 2.4148947c-.4295808.1591674-.8779879.2378954-1.3229721.2378954z" fill="#a4cbf2"/><path d="m19.2229088 12.6400269 34.108035 19.0333412z" fill="#fff"/><path d="m53.3309438 32.5291068c-.1420527 0-.2858168-.035941-.4158891-.1095345l-34.1080349-19.0316298c-.4124661-.2310494-.5613647-.7513386-.3303152-1.1655161.229338-.4141776.7547616-.5596532 1.1620932-.3303152l34.108035 19.0333412c.4124661.229338.5613646.7513387.3303151 1.1638047-.1574559.2806823-.4466956.4398497-.7462041.4398497" fill="#a4cbf2"/><path d="m16.3835676 17.7282495 34.108035 19.0333412z" fill="#fff"/><path d="m50.4916026 37.6173294c-.1420526 0-.2858167-.035941-.4176005-.1095345l-34.1063235-19.0316298c-.4141776-.2310494-.5613646-.7513386-.3320266-1.1655161.2310494-.4141776.756473-.5579417 1.1638047-.3286037l34.1080349 19.0316297c.4124661.2310495.5613646.7513386.3303152 1.1638047-.1574559.2806823-.4484071.4398497-.7462042.4398497" fill="#a4cbf2"/><path d="m13.5442265 22.8181835 20.2758738 11.3145778z" fill="#fff"/><path d="m33.8201003 34.9885c-.1420526 0-.2858167-.0342295-.415889-.1078231l-20.2758739-11.3162892c-.4141775-.229338-.5630761-.7513386-.3320266-1.1638047.2310495-.415889.756473-.5596531 1.1638047-.3303151l20.2775853 11.3162892c.4124661.229338.5613647.7513386.3303152 1.1638047-.1574559.2806823-.4484071.4381382-.7479157.4381382" fill="#a4cbf2"/></g><g transform="translate(619.66357 69.730127)"><path d="m473.51438 199.660837c-17.411942-12.690589-43.561121 3.234205-63.011296-6.034576l-.515909.244275c-4.318787 1.422659-8.616078 3.525381-11.381274 7.134792-2.765196 3.609412-3.568373 9.020598-.875482 12.682773 2.720249 3.699304 7.982916 4.629505 11.078372 8.020045 4.502482 4.928498 2.835547 12.88601 5.592927 18.967487 5.981813 13.18891 28.500084 12.825429 38.564226 5.415094 4.111641-3.027059 7.248136-7.339983 11.713488-9.812049 3.728617-2.061683 8.066946-2.663578 12.104328-4.029565 4.037382-1.364033 8.125573-3.900588 9.354766-7.980962 2.284462-7.578396-6.827983-20.382329-12.624146-24.607314" fill="#93b5d0"/><path d="m179.298492 27.4983606h5.50108v-3.6328618c0-1.5203693-1.231148-2.7515167-2.751517-2.7515167-1.518415 0-2.749563 1.2311474-2.749563 2.7515167z" fill="#ffcec8"/><path d="m178.716531 28.170997 2.417348 6.5856614 4.350054-1.5965832c1.817408-.6663829 2.751517-2.6831196 2.08318-4.5005276-.666383-1.8193623-2.681166-2.7534709-4.500528-2.0851338z" fill="#ffcec8"/><path d="m160.170371 38.7049285 79.23899-35.3065709-1.512553-3.3983576-79.240944 35.3065709z" fill="#2d3d64"/><path d="m144.074975 69.9082611 9.49156 4.6216881 12.821521-26.3367828-9.49156-4.6216882z" fill="#ffcec8"/><path d="m24.4387172 67.0529762c-.7855893-3.5918236-2.9821125-7.2168686-1.7724614-10.6894859.9927348-2.851181 3.9299006-4.4516726 6.030668-6.620837 3.5703274-3.6914879 4.6998562-9.1280784 4.7506655-14.2617676.0273588-2.4857451-.1602446-5.0008034.3439396-7.4337851 1.0200935-4.9421773 4.688131-8.8310397 7.2891741-13.1576433.8930704-1.4832395 1.6923391-3.0680974 2.9684332-4.2406187 1.3933461-1.27804828 3.2244336-1.94638542 5.0105744-2.56391332 3.992435-1.38162094 8.0141831-2.67530279 12.0613359-3.87909134 1.9698358-.58430645 4.1096872-1.14516248 6.0326221-.42601607 1.4695601.55108501 2.5736843 1.76464457 3.6172283 2.93716588 2.0870879 2.34699683 4.17613 4.69399365 6.263218 7.04099045 1.7157895.8911162 3.0817768 2.6987532 3.5683732 4.6275508.7562762 3.0036088 0 6.1537827-.6136195 9.1925671-.6116653 3.0368302-1.0513608 6.3218441.2618631 9.1300326 1.3132238 2.8042801 4.2386645 4.7877954 4.8972306 7.8148545.6409784 2.956708-1.0865364 5.846973-2.6420813 8.4401993-2.6694402 4.4536268-5.1141471 9.5677739-4.068649 14.652608.6312073 3.0798226 2.503333 5.8313393 2.8941735 8.950246.4299244 3.4393958-1.1529793 7.0546699-3.9689847 9.0733607-1.6454382 1.1822924-3.8009232 2.0030573-4.5181154 3.8986334-.5393598 1.4226592-.0703513 3.0270592-.3048556 4.5298407-.4983215 3.1853495-4.1155498 5.0926509-7.3302124 4.862055-3.2146626-.2305958-6.0834314-2.0069656-8.815406-3.7168925-2.7319747-1.7118812-5.6300565-3.4550295-8.8505817-3.6074573-6.2299966-.2931303-12.2352599 5.4190027-18.0861413 3.2576551-4.7330777-1.7509652-6.3198898-7.7405949-5.9427288-12.7746197.3752068-5.0340249 2.0030572-10.1051795.9243376-15.0356317" fill="#f49b3d"/><path d="m37.7947121 89.0809387h25.4280788v-29.2485441h-25.4280788z" fill="#0043be"/><path d="m41.1567215 66.7893544 23.215922-1.3034529s-5.3017506-10.7696082-5.0125286-20.7673066c.0938017-3.2263878-13.2358114-3.2107542-12.9094597 0 1.2878193 12.6261003-5.2939337 22.0707595-5.2939337 22.0707595" fill="#ffcec8"/><path d="m46.2286579 66.5046271c1.0279103-1.5965832 6.2710348-10.380722 5.1082845-21.785446-.1231148-1.1998801 1.6610718-1.9522479 3.9377174-2.2571035-3.8595493-.512001-9.0284141.2423211-8.8232229 2.2571035 1.2878192 12.6241462-5.2939337 22.0707595-5.2939337 22.0707595z" fill="#d4958d"/><path d="m65.5160472 55.3910793c3.8888623.9927347 6.9159215-1.2604604 9.0674981-4.4770772 2.2102027-3.3045559 4.494665-8.4167488 5.2118572-12.7922075.0488551-.298993.0918476-.5960317.125069-.8872078.0625345-.5471766 3.8009232-2.5795469 3.3690446-2.8531352-2.280554-1.4324302-4.07842-4.0725574-5.0770173-6.6032492-.7113296-1.8017744-1.5027815-3.5820526-2.1183552-5.393598-1.2506894-3.6836712-.5589018-8.5965355-3.4999761-11.5376097-7.857847-7.85393863-40.2096642.0019542-40.2096642.0019542v18.8560969c0 17.2223838 33.1295897 25.6860335 33.1315439 25.6860335" fill="#ffcec8"/><path d="m48.89204 34.7404385c-.7113296-1.8017744 10.6249973-5.895828 11.5923274-8.3835274 1.633713-4.2034889-.5823523-12.5694284-3.5234266-15.5085485-1.5438197-1.54381973-4.0412901-2.47401997-7.0448988-2.98406674-9.219926.96928428-17.5311478 2.98406674-17.5311478 2.98406674v18.8580511c0 11.6998085 16.3078172 19.1648608 16.3078172 19.1648608 2.2102027-3.3026017 1.1979259-11.6001441.1993286-14.130836" fill="#d4958d"/><path d="m95.0205918 204.39411-.009771-15.40693s2.2942333-11.87764 4.0862367-17.273193l-62.8569133 16.012733s-1.1607961 3.562511-2.0773169 8.911162c20.2553057 3.001655 40.5360159 5.680866 60.8577645 7.756228" fill="#014bd4"/><path d="m36.2407305 187.727697 61.2075667-15.594533.9067498 2.139851c-.9243377 3.486297-2.0499581 8.616078-2.9586621 12.936819-9.5325983 5.868469-29.778133 14.73273-61.5319643 11.330464.9380171-6.382425 2.3763099-10.812601 2.3763099-10.812601" fill="#191c3c"/><path d="m63.436776 59.9854086 10.525333-.2149622c2.4876994-.0527635 4.9226353.7269632 6.9178758 2.2141111l14.8910206 11.0881432c1.1627503.8657115 2.4798826 1.5008272 3.8810456 1.8682173l26.753028 7.0409904c1.819362.4787796 3.746205-.2286416 4.824925-1.7705072l19.614327-28.077977 13.013033 8.8154061-16.997651 37.6418425c-.402565.889162-1.194017 1.5262322-2.153531 1.7177442-7.119158 1.412888-37.403429 6.605203-51.7941744-4.0960083l.8012229 49.2654373c.0254046 1.565316.3537106 3.11109.9634217 4.551337l9.5716828 22.586669s-21.8303931 20.990085-68.0081908 15.111845v-16.792459l-19.7296252-90.6749817 17.6308121-16.7905052 25.187712 8.8154061z" fill="#014bd4"/><path d="m92.9129847 91.1750618c16.3723063 12.1746792 51.6651973 5.9173242 51.6651973 5.9173242l19.280159-36.1429694-16.999605 37.6398883c-.400611.8911162-1.194017 1.5281861-2.153531 1.7196981-7.103525 1.40898-37.286177 6.581753-51.7101438-4.0393361z" fill="#191c3c"/><path d="m37.7949075 83.0025882-7.7796789 59.3178528-13.5054913-62.0595984z" fill="#191c3c"/><g fill="#2d3d64"><path d="m55.0151417 27.079966h16.6771615v-1.4461097h-16.6771615z"/><path d="m75.3114856 27.079966h2.8961277v-1.4461097h-2.8961277z"/><path d="m72.4143809 26.3571066c0 3.9103585.6605203 6.2495386 1.0865364 6.8416618.4279703-.5921232 1.0884906-2.9313033 1.0884906-6.8416618 0-3.9123128-.6605203-6.2495386-1.0884906-6.8436161-.4260161.5940775-1.0865364 2.9313033-1.0865364 6.8436161m-1.4461096 0c0-.8578948.0723055-8.3854816 2.532646-8.3854816 2.4622948 0 2.5346002 7.5275868 2.5346002 8.3854816 0 .8578947-.0723054 8.3835273-2.5346002 8.3835273-2.4603405 0-2.532646-7.5256326-2.532646-8.3835273"/></g><path d="m156.012805 45.3396403v-13.4800866c0-1.2975903.439696-2.5541423 1.244827-3.5683732l4.049107-5.0887425c1.375758-1.7314232 3.466755-2.7378373 5.676957-2.7378373h10.33773c1.8604 0 3.425716 1.391392 3.642633 3.238113l1.043544 8.8525359c.238413 2.0167367-.556948 4.0178397-2.112493 5.3232468l-14.390745 12.0828321z" fill="#ffcec8"/><path d="m36.2409259 170.936019-4.2093515-19.346601 42.4100958-1.207697v13.159597l-38.2007443 8.248688z" fill="#191c3c"/><path d="m49.6739163 86.1375194s21.650606 28.1932746 31.3336779 69.9448046c0 0-3.6660833-64.4808553-9.9234387-79.1803642l-4.1311835-7.3595254-7.6233427 2.7417457-11.5903732 2.2453783z" fill="#d1e1f2"/><path d="m81.0066171 156.081738s-23.3585788-51.831305-28.3945578-53.271552l-2.1027216 3.275243-1.459789-12.2352599-2.5971347 5.0985136-12.3114738-35.4804949s36.6803751 44.4756872 46.8656769 92.6135502" fill="#152a51"/><path d="m84.9075955 161.311378s-9.2355596-56.095374-5.8391562-60.0839l3.566419 1.563362-5.557751-10.9982503 4.987124 2.8081885-15.7860453-31.9179843s2.812097 46.4533401 18.6294095 98.6285841" fill="#152a51"/><path d="m63.436776 59.9854086 7.6467932 7.2618153v9.655713l-3.8243737-5.0379332-3.8224195 7.5549457h-8.7255127l-5.0379332 6.7185471-15.531999-22.6687454 2.0988131-9.2375137 23.0888989 18.0529198 1.9776526-10.9142192z" fill="#f5f7f9"/><path d="m82.985833 157.091669s2.4486154 26.77257-4.7760701 28.392604c0 0 16.6302606-6.462547 17.9923395-7.257907s-9.9293013-1.661072-13.2162694-21.134697" fill="#d1e1f2"/><path d="m51.1552016 152.383801 1.1178036 10.497974 29.1273836-3.101319-1.1178036-10.497974z" fill="#ffcec8"/><path d="m74.4418657 146.846569-49.9552705 1.420705 13.3081169-62.7455237c1.4343844-6.2690806-2.7085243-12.4502222-9.0518646-13.5074455-6.0677978-1.0122768-11.8092438 3.07396-12.8449709 9.1378494l-12.24503093 74.4433778c-1.35817052 8.637574 5.77466746 16.247237 14.48063823 15.451877l56.3083818-8.684475z" fill="#014bd4"/><path d="m80.8625924 145.588649c.4416497-.426016.8969788-.850078 1.3464453-1.278048 1.1686129-1.106079 2.7730129-1.631759 4.3676419-1.422659 1.4128881.187603 2.8277305.388886 4.2406187.162198 2.0147825-.320489 3.8341447-1.360124 5.9739961-.89307.9810095.213008 1.9014387 1.06504 1.827179 2.067546-.0859849 1.190109-1.46956 2.079271-1.3014986 3.259609.1192063.838353.9927347 1.401163 1.1549335 2.231699.2188706 1.111941-.9106583 2.10663-.840307 3.236159.0605803.992735.9985973 1.684522 1.3894378 2.599089.3810694.891116.1973744 1.954202-.308764 2.782784-.5041841.826627-1.2936818 1.446109-2.1320346 1.930752-2.2199736 1.281956-4.3754586 1.35817-6.8475244 1.315178-2.290325-.041039-4.668589-.951697-6.978456-.842262-1.6806139.078169-3.169716-1.338628-3.585961-3.013379-.3341686-1.332766-.3068098-.512001-.4514207-1.876034-.2638173-2.477929-.4103825-3.851733-.6741998-6.327707 0-.590169 2.3958519-3.523427 2.8199138-3.931855z" fill="#ffcec8"/><path d="m9.81933067 84.8211688c4.24061873-5.1493228 6.90810473-11.6314114 7.42596833-18.2874241.5334972-6.8318908-3.8263279-13.9842708-1.8897135-20.6461461 1.4363386-4.9480399 6.4390962-8.080626 8.4656038-12.8215205 1.9444312-4.5493827.850078-9.7788277 1.5281861-14.6799668 2.3430885-16.94488719 23.7963201-19.30556343 37.3721626-17.05236831 4.1702675.69178758 14.2539508 2.30400438 15.8778928 7.2364107 2.1711186 6.58956981-7.9868243 9.71629331-12.5518406 7.37125061-1.3562163-.6956959-2.5424171-1.7353315-3.9865725-2.2297447-1.97179-.6781081-4.2992448-.183695-5.8274309 1.23701-1.5262319 1.4187508-2.1887065 3.7051674-1.6571635 5.721904.3146266 1.1901092 1.0083684 2.2942334 1.0650402 3.5253808.1407026 3.1208609-3.6778085 4.852284-6.8025778 4.881597-.8969788.0078168-1.8877593-.0214962-2.5775927.5549934-.4670543.3927947-.6996043.994689-.8813452 1.5770412-2.6889822 8.6336653 3.4687089 14.101523-3.644587 21.1307883-4.9656278 4.9050474-16.5423215 13.618835-11.5493349 21.8518888.908704 1.5008273 2.4036686 2.726112 2.7182952 4.4516726.4553291 2.4974704-1.7548736 4.658818-3.9416258 5.9485914-2.1847981 1.2878193-4.7389403 2.4212565-5.7883469 4.7330777-1.1002158 2.4271191-.1250689 5.2294451.0214962 7.8910685.4436039 8.0493587-4.7487113 8.8447187-9.5755907 13.0599327-3.5097471 3.066144-4.68031422 9.52869-4.1311834 13.884607.0859849.689833.04103824 1.64153-.64293252 1.768553-.30876395.056672-.61166528-.105527-.88329939-.263817-1.62980462-.94388-3.28696808-1.909256-4.5630621-3.294785-1.27804823-1.383575-2.1398514-3.279151-1.84281266-5.139552.19542021-1.227239.86766577-2.327455 1.1666587-3.535152.95951327-3.886908-2.05191229-7.595984-2.60495151-11.56106-1.08067381-7.7269153 5.46394931-12.1688169 9.70065965-17.3142312" fill="#f49b3d"/><path d="m589.528328 100.988283 17.116857-3.2283415 19.925046 2.2531955 25.650858 37.512865-.302902 28.378924c-23.770915 13.767354-55.561876 15.84858-84.011152 13.681369-.840307-.064488-1.682568-.132885-2.522875-.201282l-.003908-.035176-14.023355-31.533007 14.007721-28.461c4.71549-9.583408 13.66769-16.38794 24.16371-18.367547" fill="#014bd4"/><path d="m595.450343 70.8621072c-.140703-2.8277306 1.188154-5.5714305 1.219422-8.3268556.019542-1.9424769-1.301499-3.8927707-1.188155-5.8841027.252092-4.4536268 2.098813-8.6414821 3.918175-12.7140395l.740643.3595732c4.406726-4.2269393 11.179991-5.5421174 17.069956-3.9318548 5.889965 1.6083084 10.857547 5.8801944 13.992088 11.1194105 4.457535 7.4513729 6.802577 11.4496706 3.662174 19.543976-1.145162 2.9508453-2.880494 5.8938738-5.022299 8.5613598-1.37185 6.8123488-4.604101 24.4920159-3.695397 35.7501749h-19.897686s1.082628-12.778528.09771-21.2949413c-1.154934.3087639-2.178935.3068097-2.927395-.2833593-1.100216-.86962-1.729469-2.1339888-2.515058-3.2967391-2.012828-2.9821126-4.994941-5.4873998-5.673049-9.0205973-.535451-2.7984175.361527-7.7366865.218871-10.5820048" fill="#9b7672"/><path d="m606.345997 94.0455894c.984918 8.5164126-.09771 21.2929866-.09771 21.2929866h6.24563c-3.089594-4.750665 1.754873-17.1676658.769956-25.6840789-1.154934.3087639-2.456433 2.4407985-3.202938 1.8506294z" fill="#2c2e31"/><path d="m595.450343 70.8621072c-.140703-2.8277306 1.188154-5.5714305 1.219422-8.3268556.019542-1.9424769-1.301499-3.8927707-1.188155-5.8841027.252092-4.4536268 2.098813-8.6414821 3.918175-12.7140395l.740643.3595732c3.503884-3.3612277 8.498825-4.8483756 13.36088-4.5220238-3.931855.3048555-7.748412 1.8017744-10.583959 4.5220238l2.438844 2.0480039c-1.817408 4.0725574-6.847524 5.8528356-7.099616 10.3064624-.11139 1.991332 3.537106 5.3291093 3.51561 7.2715863-.031268 2.7573793-4.477078 5.6730489-4.336375 8.5007795.142657 2.8453184 2.833593 6.0717062.572581 9.0205973-2.19066 2.8550894 3.658267 6.0384847 5.671095 9.0205973.287268.4240619.199329 3.6582665-.259909 3.2967391-1.100216-.86962-1.729469-2.1339888-2.515058-3.2967391-2.012828-2.9821126-4.994941-5.4873998-5.673049-9.0205973-.535451-2.7984175.361527-7.7366865.218871-10.5820048" fill="#2c2e31"/><path d="m603.211652 36.6197948c.277497-.1700156.556948-.3302602.844215-.482688 4.013932-2.1183551 9.673301-2.6577149 14.158195-2.561959 4.854238.1016185 9.643988 1.4519722 13.87679 3.8243736 2.251241 1.2604604 4.541566 3.0544181 5.649598 5.4502699 1.063086 2.2961876-.109435 4.3305121.625345 6.6501501.463146 1.4656516 1.905347 2.4427527 2.321592 3.8302363.414291 1.3816209.084031 3.431579 0 4.8581466-.203237 3.3534109-.816856 6.6794631-1.809591 9.8882631-1.981561 6.4156457-5.477629 12.3759624-10.218523 17.1442157-.136794.1367942.459237-2.0714543.496367-2.1984774.318535-1.0415898.642933-2.0655917.855941-3.1443113.492459-2.5209209.627299-5.112193.386932-7.6702436-.103573-1.1099869-.291176-2.2512409-.910658-3.1775328-.619483-.9262918-1.774416-1.5770411-2.851181-1.295636-.769956.203237-1.3484.8168565-1.979607 1.2995444-1.342537 1.024002-2.956708 1.3034529-4.608009 1.043544-.310718-.0488551-.639024-.1035727-.881345-.3048555-.437741-.3595732-.42797-1.0220478-.383024-1.5868122.265772-3.2088.529589-6.4176.793406-9.6264.224734-2.7339288 2.31573-8.4753749-2.540463-8.1685651-2.417348.1543819-4.520069 1.2936818-6.847524 1.7841866-1.846721.3888862-3.806786.5764896-5.698454.8559405-5.520621.8149023-14.044851.1504736-16.892123-5.6632779-1.070903-2.1847981-1.00446-4.8933223.173924-7.0234027 1.489102 1.9287976 4.48294 1.4382928 6.804532.6996044 1.588766-.5041841 3.177532-1.0415898 4.639276-1.8447668 1.389437-.7621389 2.642081-1.7548736 3.994389-2.5795469" fill="#2c2e31"/><path d="m612.423956 115.339358-5.778575-18.9518527-3.415946.6448867-3.61332 30.428882z" fill="#fff"/><path d="m626.844796 97.7599415 18.203393 3.4452585c8.9053 1.684522 16.374261 7.723007 19.887916 16.08113l20.33152 48.358687c2.880494 6.849479-2.149623 14.422012-9.581454 14.422012l-72.715863-3.632862-3.355365-10.296691 8.006366 2.720249 45.513369-3.855641c3.720801-.31658 5.671095-4.572833 3.480434-7.595983l-30.467966-42.066157s-5.465904-15.031723.69765-17.5800025" fill="#9b7672"/><path d="m602.97109 172.96409c17.781285 7.506091 72.715863 3.632862 72.715863 3.632862 5.342789 0 9.425117-3.918175 10.238065-8.662978 1.06504 6.144012-3.628953 12.131687-10.238065 12.131687l-72.715863-3.632862-3.355365-10.294737 1.272185.431879s.533497 5.739492 2.08318 6.394149" fill="#724843"/><path d="m626.844601 97.7599415 18.203393 3.4452585c8.907254 1.684522 16.376214 7.723007 19.88987 16.079176l14.042897 29.846529c-10.978708-1.143208-22.36389 10.275196-30.19047 4.117504l-22.643341-35.908465s-5.465903-15.031723.697651-17.5800025" fill="#014bd4"/><path d="m627.005432 96.5768675-14.582257 18.7622955 10.292783 13.493766 9.337178-31.0737692z" fill="#fff"/><path d="m596.034258 76.7739596c.789498-2.8179595 2.60886-.377161 5.755126-.6644287 1.819362-.1661072 5.381872-2.5385087 6.839707-1.4343844.625345.4729169 1.082628 1.1275746 1.551637 1.7548735.259909.347848.58626.5823523.928246.7386884 1.045498.4807338 2.280554.2169165 3.169716-.5100467.873528-.715238 2.083179-1.8115455 2.522875-2.7124327.723055-1.4910562.580398-2.9410742.773864-4.5161612.162199-1.3249491.656612-2.6225393.877437-3.9768015.494413-3.0505096.99078-6.1010192 1.485193-9.1515288l.750414 1.2624146c-.250138-.8578947.633161-1.7548735 1.524278-1.7138353.89307.039084 1.633713.7894977 1.913164 1.6356672.279451.8481238.183695 1.7744156.009771 2.6498982-.537406 2.716341-1.600492 5.528438-1.545774 8.3229471.046901 2.3802183-.756277 6.5622109.144611 8.737238.95365 2.2981417 3.728617 3.5312433 1.907301 6.5465773-1.682568 2.7886465-5.78053 5.1649564-8.557451 6.6345164-3.736435 1.9776526-7.363434 4.3070616-11.602099 4.8796429-.289222.039084-.640978.0058626-.934108 0-.463146-.009771-2.819914-1.1549335-3.163854-1.4676059-2.952799-2.6928906-3.556648-4.9734445-4.361779-8.4753748-.941925-4.1018704-1.04159-4.7780244.011725-8.5398636" fill="#2c2e31"/><path d="m609.40491 81.0628471-4.625597-1.3542621h-4.047153l-3.296739 1.3542621 1.717744 3.8790914c.457283 1.0376813 1.485194 1.7060185 2.618631 1.7060185l.476825-1.7353316 1.6044.1309316.822719 1.6044h.713284c1.211605 0 2.290325-.7601847 2.698753-1.8994845z" fill="#9b7672"/><path d="m654.805912 153.062691c-2.165256.095756-4.187855-.377161-6.016989-1.815454l-2.491608-18.801379z" fill="#724843"/><path d="m401.348624 192.319877c21.97305-2.636219 43.936328-5.51085 65.893744-8.457787-.332215-3.156037-.28336-6.351157.173924-9.513056l2.536554-17.542873h16.929254l-2.563914-17.251697c-2.118355-14.269585-13.507445-25.363591-27.827839-27.108693l-9.546277-1.164705-26.295745.164153-11.811198 1.649347c-14.51386 2.026508-25.807194 13.640331-27.425274 28.206954l-2.178935 19.612374h21.20114z" fill="#014bd4"/><path d="m420.424569 95.3007734c-.861803-.73478-1.754874-1.4617432-2.798418-1.9073013-1.041589-.4436039-2.268828-.5764896-3.298693-.1074811-1.559453.7113296-2.687028 2.2180195-4.230848 3.034876-1.696247.8969788-3.29283 1.8838509-4.711581 3.1873037-2.712433 2.4896533-4.684223 5.8274313-5.094605 9.5228273-.556948 4.994941 1.56727 9.8355 2.894173 14.681921 1.328858 4.846421 1.663026 10.624997-1.754873 14.308668 4.963673.257955 9.935163-2.823822 11.912816-7.386884.185649 2.159394.373253 4.318787.558902 6.47818 3.548831-2.919578 5.936866-7.17583 6.714639-11.6959.357619-2.094904.257954-4.223031.554993-6.263218.298993-2.044095-.429924-4.516161.619482-6.392195.039084-.068397.078168-.13484.121161-.199329.59994-.922383 1.584858-1.551636 2.268828-2.42321.908704-1.156888 1.229194-2.677257 1.285865-4.146817.164153-4.416497-1.768553-7.9047483-5.041841-10.6914406" fill="#2c2e31"/><path d="m443.366902 99.1710709-.730871 26.8038371-10.103225 17.034781-9.679164-18.353867-.504184-17.083636 10.982616-6.80844z" fill="#ffcec8"/><path d="m422.35024 107.573163.203237 6.902242c.273588.117252.541314.242321.834444.312673l3.132586.762138c1.430476.347848 2.941074.105527 4.18981-.670291l7.631159-4.744803c1.784187-1.108032 3.398358-2.440798 4.834696-3.941626l.191512-7.021448-10.036782 1.590721z" fill="#2c2e31"/><path d="m434.454177 62.1406982-18.18776 9.423163-2.808188 14.2305003c-.312673 1.5809495-.158291 3.218571.44165 4.7135356l5.696499 14.1601489c.66052 1.639576 2.071454 2.862906 3.791152 3.279151l3.132586.762139c1.430476.349803 2.941075.107481 4.191764-.670291l7.629205-4.742849c4.316833-2.683119 7.709328-6.6247452 9.718248-11.2933342l3.707121-8.6063064v-14.4630504z" fill="#ffcec8"/><path d="m448.059919 92.0032527 3.705167-8.6063065v-14.4630503l-7.302853-2.8668147h-10.212661l-2.0695 1.6493467c-3.810694 3.0407386 4.733078 8.2330538 6.577845 12.7472609l-1.821317 10.6093636c-.177832.898933-.40452 4.9734446 0 8.0982139.406474 3.1462657-2.87854 3.7247097.039084 4.9753987l1.365988-.850078c4.316832-2.68312 7.707373-6.6247453 9.718247-11.2933343" fill="#2c2e31"/><path d="m459.43064 68.6926214c-.916521-2.7808297-1.840859-5.5831557-3.26938-8.1372979-4.844468-8.6571157-15.770412-13.405827-25.404629-11.0431966-8.19397 2.0089199-14.570531 8.3053593-20.181046 14.6076614-2.225836 2.4994245-4.66468 5.4444072-5.653507 8.7098791-1.012276 3.3475483.836399 7.8226713 2.792555 10.5018825 1.780278 2.4368902 4.267978 4.3617793 5.65937 7.0390363 1.252643-2.8355474 2.26492-5.7766216 3.025105-8.7821846.611665-2.4193023.836398-5.325201 2.831639-7.113296.844215-.7582304 1.991332-1.0767654 3.113044-1.2545978 3.406174-.541314 6.917876-.0039084 10.318187-.5823522 3.400312-.5764897 6.958914-2.8042802 7.345846-6.2319508.156337.0312672.298993.0977101.431879.1856492-2.944983 5.4580867 4.264069 13.0951089 5.133689 18.1428131.852032 4.9539026-2.78083 9.5325983-3.519518 14.5060428-.717192 4.8112461 1.066994 9.1749791-.15829 13.7126371-1.727515 6.388287-1.610263 9.30591.56281 15.8349 1.324949 3.978756 1.989378 8.829085-.791452 11.967534 5.110239-1.440247 9.255102-1.981561 11.434037-7.472869.822719 3.752068.527635 7.742549-.838353 11.332418 2.75738-2.710478 5.258758-5.678911 7.461144-8.856444.062535 1.027911.123115 2.053867.185649 3.079823 2.454478-5.536255 4.944132-11.209304 5.407278-17.247789.256-3.347548-.121161-6.71073-.035176-10.064141.080122-3.157991.568673-6.288623.73478-9.442705.597986-11.3988612-3.015334-22.5495389-6.585661-33.3914526" fill="#2c2e31"/><path d="m404.845474 191.898942c20.80639-2.520921 41.604964-5.245079 62.397675-8.037634-.332214-3.156036-.283359-6.349203.173924-9.513056l2.45057-16.95075c-.625345-3.320189-1.356216-7.252044-3.32019-10.05437-1.932706.992735-1.281956 12.882101-2.118355 15.827083-.426016 1.502782-.981009 3.025105-2.05582 4.160497-2.075363 2.192615-5.479583 2.370447-8.485146 2.085134-3.005563-.285314-6.1616-.867666-8.950246.285313-5.016437 2.077317-3.18535 9.540415-8.944384 11.320693-5.98963 1.852584-11.858099 2.886357-18.15063 2.112493-2.495516-.30681-5.004712-.855941-7.502182-.549131-2.495516.30681-5.061384 1.706019-5.866515 4.088191-.341985 1.016185-.338077 2.122264-.173924 3.181441.107481.705467.304856 1.383575.545223 2.044096" fill="#152a51"/></g><g transform="translate(532.680304 147.096454)"><path d="m0 2.49356199c0 .88525359.25013788 1.75487356.72500901 2.503333l20.78294029 32.89508541c.6468409 1.0240019 1.7724613 1.643484 2.9821125 1.643484h62.8100125c1.1060784 0 2.0030572-.8969788 2.0030572-2.0030572v-1.7236063l-30.2608209-34.51121065c-.6702913-.81685651-1.6708428-1.28977344-2.7280662-1.28977344l-56.3142444-.00781681z" fill="url(#a)" mask="url(#b)" transform="translate(491.697026 112.299352)"/><path d="m517.121587 149.969335c-1.209651 0-2.335271-.619482-2.982112-1.643484l-22.150882-35.023211c-.785589-1.240919.105527-2.860952 1.575087-2.860952h55.380136c1.057223 0 2.057775.472917 2.728066 1.289773l28.90265 35.189319c.998598 1.217468.132886 3.048555-1.442201 3.048555z" fill="#000"/><path d="m573.101858 145.210267h-52.683336c-.449467 0-.865712-.230596-1.106079-.609711l-19.278204-30.479692h46.914532c.392794 0 .764093.175878 1.012276.47878z" fill="#f9f9fb"/><g fill="#d1e1f2"><path d="m557.99568 128.691982h-46.400577l-1.319086-1.618079h46.390806z"/><path d="m555.308652 125.272128h-46.400577l-1.319086-1.618079h46.390806z"/><path d="m552.768776 121.852274h-45.788912l-1.321041-1.618079h45.781095z"/><path d="m549.934596 118.432421h-24.695253l-1.321041-1.61808h24.687437z"/><path d="m538.748938 132.068062h-24.695253l-1.32104-1.61808h24.687436z"/><path d="m541.802379 136.776126h-24.695253l-1.321041-1.61808h24.687437z"/><path d="m544.85582 141.484385h-24.695253l-1.321041-1.618079h24.687437z"/></g><path d="m569.636081 143.347326h-22.270088c-.189558 0-.36739-.09771-.469009-.257955l-8.149023-12.884055h19.833198c.164153 0 .322443.07426.42797.201283z" fill="#b3c0d7"/><path d="m551.992566 147.853325h-10.843867c-.130932 0-.234505-.103572-.234505-.23255 0-.130931.103573-.234504.234505-.234504h10.843867c.128978 0 .232551.103573.232551.234504 0 .128978-.103573.23255-.232551.23255" fill="#2d3d64"/><path d="m554.973116 93.0203661 1.963973-13.5817052h16.927299l6.943281 25.0587351-2.006966 27.569884 5.856744 11.819015c.420153.846169.482688 1.827179.173924 2.720249l-1.276094 3.689534c-.701559 2.03237-2.614723 3.394449-4.766299 3.394449h-16.436795c-.091847-2.352859 1.71579-4.346145 4.066695-4.488802l4.891368-.293131c2.468157-.150473 4.395001-2.194569 4.395001-4.668589 0-1.342536-.57649-2.620585-1.582904-3.507792l-3.953351-3.488251h-5.536255l-1.178384.941925c-1.850629 1.481285-4.606054.764093-5.499125-1.430476l8.956109-5.374056-4.885506-26.219531z" fill="#ffcec8"/><path d="m466.216184 83.5485436v30.0868964c0 4.819063 4.742848 8.203741 9.300048 6.638425l16.651757-5.721904c3.560556-.392794 6.951097-1.733377 9.815957-3.881045l4.3481-3.523427 1.481285-.308764c1.434385-.298993 2.462295-1.563362 2.462295-3.027059v-1.903393c0-.846169-.650749-1.551636-1.49301-1.620034l-6.902242-3.4276701-9.204293 1.479331 8.199833-2.1339888 4.885505.4885506c1.280002-.0371299 2.300096-1.0845822 2.300096-2.3645847l-6.697051-1.0552692c-1.104124-.1954202-4.766299-.9106582-5.458087-.029313l-5.776621 1.97179-1.264369 2.3313632-.934109 3.626999-.513955-17.6269034z" fill="#ffcec8"/><path d="m509.295203 100.430505.066443 1.125621c.08403 1.461743-.86962 2.782784-2.284463 3.163853l-1.461743.394749-4.135092 3.767702c-2.735883 2.311821-6.042393 3.84587-9.57559 4.443856l-16.292184 6.677509c-1.833042.750413-3.740343.658566-5.377964-.033222 1.577041.750414 3.44135.936063 5.282208.302901l16.651757-5.721904c3.560556-.392794 6.949143-1.733377 9.815957-3.881045l4.346146-3.521472 1.48324-.310719c1.434384-.298993 2.462294-1.561407 2.462294-3.027059v-1.903393c0-.662474-.404519-1.225285-.981009-1.477377" fill="#3c5185"/><path d="m505.174963.97802943c-1.944431 0-3.886908.39279464-4.672497 1.18033812-.668338.66833715-.326352 3.97093884.132885 6.09906502.009771 1.75682773 1.356217 3.10131883 3.009472 3.10131883h3.06028c1.954202 0 2.759334-2.1867522 3.015334-3.12476925.451421-2.10467576.793406-5.40923165.127023-6.0756146-.787543-.78754348-2.73002-1.18033812-4.672497-1.18033812m1.53014 11.35782307h-3.06028c-2.192615 0-3.976802-1.7822324-3.976802-3.97484721-.191512-.84030694-1.137345-5.61246868.142657-6.89442531 1.954202-1.95420219 8.772414-1.95420219 10.726616 0 1.281956 1.28195663.336123 6.05411837.132886 6.99799803-.670292 2.47011159-2.114447 3.87127449-3.965077 3.87127449" fill="#2d3d64"/><path d="m519.747449.97978821c-1.944431 0-3.886908.39279464-4.674452 1.17838392-.668337.66833715-.326352 3.97093884.132886 6.10101923.683971 2.15939344 1.586812 3.10131884 3.011425 3.10131884h3.058327c1.655209 0 2.9997-1.3464453 2.9997-2.99970033.469009-2.2316989.810994-5.53625479.144611-6.20263774-.787543-.78558928-2.73002-1.17838392-4.672497-1.17838392m1.528186 11.35782309h-3.058327c-2.462294 0-3.437441-2.1867522-3.955305-3.82828206-.214962-.98882631-1.160796-5.76098805.121161-7.04294468 1.952248-1.95420219 8.770459-1.95615639 10.726615 0 1.280003 1.28195663.334169 6.05411837.130932 6.99799803.011725 2.08904211-1.772461 3.87322871-3.965076 3.87322871" fill="#2d3d64"/><path d="m525.650116 4.44165739-.115298-.96928429 6.312074-.74259683.113343.96928428z" fill="#2d3d64"/><path d="m510.978357 4.3615351-.549131-.80708551c.787544-.541314 2.661624-1.22137636 4.103825.03322144l-.640978.73673422c-1.231148-1.0767654-2.845319-.0078168-2.913716.03712985" fill="#2d3d64"/><path d="m641.069206 153.163674c.058626-.414291.080122-.826627.058626-1.231147-.185649-3.406174-2.604952-3.724709-5.58511-5.049659-5.592927-2.485745-12.108237-4.869871-18.318691-3.69735-3.11109.586261-6.001355 1.981561-8.850582 3.365136-4.056924 1.967882-9.190613 7.467007-6.24563 12.276298 1.444155 2.358722 4.381321 3.005563 6.941326 3.144312 1.410934.076213 3.71103-.744551 5.014483-.193466 1.854538.785589 2.169164 3.271334 3.601595 4.598237 1.817408 1.684523 4.613871 1.711881 7.044898 1.231148 5.098514-1.006414 9.810095-3.855641 13.073613-7.898886 1.385529-1.719698 2.927395-4.17613 3.265472-6.544623" fill="#93b5d0"/><path d="m758.483731 152.14104c1.010323-4.285565-23.655617-11.041242-28.085794-10.204844-5.100467.961468-13.818163 3.51561-11.738892 10.386585.836398 2.759334 3.259609 4.838605 5.970088 5.825477 2.38608.86962 5.059429 1.024002 7.205143 2.382172 1.336674.84617 2.372402 2.108584 3.712984 2.948891 3.963122 2.479883 9.204293.609711 13.100972-1.973744 3.638724-2.41344 6.888562-5.415094 9.579499-8.852536.130931-.166107.214962-.338077.256-.512001" fill="#93b5d0"/><path d="m614.471146 145.931563c-4.127275-2.673349-6.58957-7.205144-6.58957-12.121916v-6.136195c0-1.076766.556948-2.044096 1.491057-2.583455.932154-.53936 2.048004-.53936 2.982112-.001955l3.84587 2.21802-1.672797 2.905898-3.292831-1.89753v5.495217c0 3.775518 1.891668 7.253998 5.05943 9.307865z" fill="#014bd4"/><path d="m614.32634 123.219434.027359 28.756085c.422107 2.104676 6.120561 3.771611 13.0912 3.771611s12.669093-1.666935 13.091201-3.771611l.027358-28.756085z" fill="#014bd4"/><path d="m632.917056 155.377199c4.27384-.603848 7.316533-1.887759 7.619434-3.402266l.027359-28.756085h-7.646793z" fill="#6693e6"/><path d="m640.56424 123.219434c0 2.221928-5.874332 4.023702-13.118559 4.023702-7.246182 0-13.118559-1.801774-13.118559-4.023702s5.872377-4.023702 13.118559-4.023702c7.244227 0 13.118559 1.801774 13.118559 4.023702" fill="#5c74ac"/><path d="m639.912123 123.083617c0 2.036279-5.581202 3.68758-12.46781 3.68758-6.884654 0-12.465856-1.651301-12.465856-3.68758s5.581202-3.687579 12.465856-3.687579c6.886608 0 12.46781 1.6513 12.46781 3.687579" fill="#1f3e75"/><path d="m731.27342 145.921206c-4.127275-2.673349-6.58957-7.205144-6.58957-12.121917v-6.136194c0-1.076766.556948-2.044096 1.491057-2.583456.932154-.53936 2.048003-.53936 2.982112-.001954l3.84587 2.21802-1.672797 2.905898-3.292831-1.89753v5.495216c0 3.775519 1.891668 7.253999 5.05943 9.307865z" fill="#014bd4"/><path d="m731.128614 123.209077.027358 28.756085c.422108 2.104676 6.120562 3.77161 13.091201 3.77161s12.669093-1.666934 13.0912-3.77161l.027359-28.756085z" fill="#014bd4"/><path d="m749.71933 155.366842c4.27384-.603849 7.316533-1.887759 7.619434-3.402266l.027359-28.756085h-7.646793z" fill="#6693e6"/><path d="m757.366514 123.209077c0 2.221928-5.874332 4.023702-13.118559 4.023702-7.246182 0-13.11856-1.801774-13.11856-4.023702s5.872378-4.023702 13.11856-4.023702c7.244227 0 13.118559 1.801774 13.118559 4.023702" fill="#5c74ac"/><path d="m756.714397 123.07326c0 2.036279-5.581202 3.687579-12.465856 3.687579-6.886609 0-12.46781-1.6513-12.46781-3.687579s5.581201-3.68758 12.46781-3.68758c6.884654 0 12.465856 1.651301 12.465856 3.68758" fill="#1f3e75"/><path d="m160.347489 163.03943c1.010322-4.285565-23.655618-11.041242-28.085794-10.204843-5.100468.961467-13.818164 3.515609-11.738893 10.386584.836399 2.759334 3.261564 4.838605 5.970088 5.825477 2.386081.86962 5.059429 1.022048 7.205143 2.382172 1.336675.84617 2.372402 2.108585 3.714939 2.948892 3.961168 2.479882 9.202338.609711 13.099017-1.973745 3.638725-2.413439 6.888563-5.415094 9.579499-8.852536.130932-.166107.214962-.338077.256001-.512001" fill="#93b5d0"/><path d="m133.137177 156.819596c-4.127275-2.673349-6.589569-7.205144-6.589569-12.121916v-6.136195c0-1.076766.556947-2.044096 1.491056-2.583456.932154-.539359 2.048004-.539359 2.982112-.001954l3.84587 2.21802-1.672797 2.905898-3.29283-1.89753v5.495217c0 3.775518 1.891667 7.253998 5.059429 9.307865z" fill="#014bd4"/><path d="m132.992371 134.107467.027359 28.756085c.422108 2.104676 6.120561 3.77161 13.0912 3.77161 6.972594 0 12.669093-1.666934 13.091201-3.77161l.029313-28.756085z" fill="#014bd4"/><path d="m151.583283 166.265232c4.27384-.603848 7.316533-1.887759 7.619434-3.402266l.027359-28.756085h-7.646793z" fill="#6693e6"/><path d="m159.230467 134.107467c0 2.221928-5.874332 4.023702-13.11856 4.023702-7.246181 0-13.120513-1.801774-13.120513-4.023702s5.874332-4.023702 13.120513-4.023702c7.244228 0 13.11856 1.801774 13.11856 4.023702" fill="#5c74ac"/><path d="m158.578349 133.97165c0 2.036279-5.581201 3.68758-12.46781 3.68758-6.884654 0-12.465855-1.651301-12.465855-3.68758s5.581201-3.687579 12.465855-3.687579c6.886609 0 12.46781 1.6513 12.46781 3.687579" fill="#1f3e75"/><path d="m54.1611229 130.280358c-8.0689008-7.185602-10.5077452 1.899484-18.7329822.310718l-4.7272151-.662475c-11.8444194-6.188958-30.12402665 27.745763-7.6428847 25.541423 3.9064502-.383024 7.6370221-1.919027 11.5473807-2.25515 4.6041004-.396703 9.1632541.8833 13.6676901 1.92489 4.5024818 1.041589 9.2648726 1.844766 13.6950489.52568 4.4282222-1.319087 8.3659396-5.372102 8.0649924-9.984019-.4924589-7.574488-11.0822805-11.135044-15.8720301-15.401067" fill="#93b5d0"/><path d="m50.7547531 46.7399729c-.1915119-2.9078529-.4064741-5.905599-1.719698-8.5066422-9.182796 11.1057311-12.6241461 26.7217607-8.9580628 40.6591307l2.7085242 2.5170124c4.4673062-4.2093515 6.8846543-10.2302484 7.828534-16.296092.9438797-6.0638894.5432682-12.2489393.1407026-18.3734089" fill="#33b85f"/><path d="m75.4423847 62.5156609c-.1954202-.2227791-.50223-.3048556-.7914519-.3693443-6.0169885-1.3444911-12.6085125.183695-17.4178041 4.039336-4.8112458 3.8556409-7.7366864 9.9566601-7.7327819 16.122168l1.8232745 2.2023859c3.8497783 1.0513607 7.8734806-.9126125 11.0686012-3.3026017 5.8372019-4.3715503 10.4139435-10.4080809 13.0462538-17.2087045.1876034-.4865963.347848-1.0904448.0039084-1.4832394" fill="#33b85f"/><path d="m15.6858132 62.1838373c-4.0920994-3.3260521-8.85449015-6.5758903-14.11911084-6.2554012-.55694763.0351757-1.19597174.164153-1.45588063.6585662-.57648965 1.0904448 1.26632302 1.9112097 1.62394202 3.0915478.20714543.6878792-.13093155 1.4070256-.27163411 2.1105384-.25990889 1.2897734.14851937 2.6147225.63706991 3.8360989 4.81319999 12.0789237 18.44376025 19.9641295 31.31413585 18.1193626l1.6024458-2.5150582c-5.8176599-6.9452345-12.2997486-13.3335215-19.330968-19.0456545" fill="#33b85f"/><path d="m30.772254 81.993194c9.1827961 8.7196502 10.36118 21.656469 8.7782762 33.592736-.3458937 2.599089 3.7442514 2.573684 4.0862368 0 1.7236063-13.003262-.0508092-27.0598381-9.9742479-36.483001-1.9073014-1.8095912-4.8014748 1.0748112-2.8902651 2.890265" fill="#33b85f"/><path d="m39.7400879 77.8498946c1.9424769 11.4770294-.5334972 23.0713114.6917875 34.6011034.2755425 2.589318 4.3656877 2.616677 4.0862368 0-1.266323-11.908908 1.1705671-23.8178158-.8383527-35.6876399-.4377413-2.5873636-4.3754587-1.489102-3.9396716 1.0865365" fill="#33b85f"/><path d="m51.7140709 77.0375327c-3.3709988 5.0574753-6.775219 10.5761422-8.3503059 16.5051917-1.7099269 6.4332336-1.2213764 13.6715986-1.5164609 20.2807106-.1172522 2.628402 3.9689846 2.622539 4.0862367 0 .2774968-6.229997-.1719697-13.14201 1.3698958-19.1941742 1.4089798-5.5264838 4.7975663-10.8145549 7.9379693-15.5300448 1.4636974-2.194569-2.0753628-4.2425729-3.527335-2.0616833" fill="#33b85f"/><path d="m56.3179758 139.555783h-22.8074937c-.9360628 0-1.7568277-.631208-1.9952404-1.536003l-7.7640453-29.309125c-.347848-1.311269.6390241-2.59518 1.9952404-2.59518h38.3355843c1.3562163 0 2.3450427 1.283911 1.9971947 2.59518l-7.7640453 29.309125c-.2403669.904795-1.0611318 1.536003-1.9971947 1.536003" fill="#5d4541"/><path d="m47.9969829 42.6472872c-3.0387844 11.4477164-3.0622348 23.3859376-5.8293851 34.8864175-.0879391.3693442.4807338.5256803.5706271.1563361 2.765196-11.5004798 2.7906007-23.4406552 5.8274309-34.8864174.0977101-.36739-.4709628-.5237262-.5686729-.1563362" fill="#7b643c"/><path d="m51.7523733 80.9729051c4.8171084-7.5412663 11.7955644-13.0657958 20.2416262-16.0185953.357619-.125069.2030343-.695696-.1563362-.5686729-8.5984896 3.0036088-15.6941977 8.6141233-20.5953368 16.2902294-.2051912.3204892.3068098.6175279.5100468.2970388" fill="#7b643c"/><path d="m2.931908 59.5847484c1.83890426 4.6236424 5.07310888 7.8422134 9.114399 10.6738524 5.8235225 4.0803741 13.3178879 6.0912482 18.6548141 10.6679897.3380769.2892219.8285817-.1993286.4905047-.4885506-3.7149383-3.1873037-8.4460618-4.5005276-12.6515049-6.9002879-6.0365306-3.4452584-12.26848136-7.4220599-14.93987575-14.1366986-.16415298-.4103825-.83444433-.2305959-.66833715.183695" fill="#7b643c"/><path d="m343.36918 142.457773-2.814051-2.048004c-7.527587-7.179739-19.243029-7.203189-29.574896-5.972042-31.746014 3.781381-62.720119 11.312877-94.839386 12.032023-2.096859.046901-4.258207.085985-6.177233.934109-5.237262 2.313775-6.226088 9.921484-3.265472 14.824578 2.958662 4.901139 8.498825 7.582304 13.890469 9.511102 14.328211 5.123918 26.928906 3.183395 40.848688-2.356768 5.415095-2.153531 10.736387-4.697902 16.456337-5.81766 6.706822-1.31127 13.618835-.601894 20.435092-.115298 13.622744.971238 27.308022 1.031819 40.936628.181741 4.262115-.265772 9.122215-.959514 11.471167-4.525933 3.707121-5.63201-1.856493-12.764848-7.367343-16.647848" fill="#93b5d0"/><path d="m261.877777 150.382454h-49.048521c-.764093 0-1.383575-.619482-1.383575-1.383575v-3.84587c0-.766048.619482-1.383575 1.383575-1.383575h49.048521z" fill="#666f7d"/><path d="m250.549071 150.382454c-3.038784 0-5.129781-3.05051-4.035427-5.884103l22.102026-57.2131774c.642933-1.6669345 2.247333-2.7671503 4.035428-2.7671503h94.534531c3.038784 0 5.12978 3.0505096 4.035427 5.8841027l-22.102027 57.213177c-.644886 1.666935-2.247332 2.767151-4.035427 2.767151z" fill="#9da6b6"/><path d="m307.367514 120.921055c-2.745759 0-4.972091-2.224831-4.972091-4.97059s2.226332-4.97059 4.972091-4.97059 4.97059 2.224831 4.97059 4.97059-2.224831 4.97059-4.97059 4.97059z" fill="#fff"/><path d="m696.946295 103.981095h49.048521c.764093 0 1.383575-.619482 1.383575-1.383575v-3.8458697c0-.7660473-.619482-1.3835751-1.383575-1.3835751h-49.048521z" fill="#666f7d"/><path d="m708.275196 103.981095c3.038785 0 5.129781-3.050509 4.035428-5.8841024l-22.102027-57.2131774c-.642933-1.6669345-2.247333-2.7671503-4.035428-2.7671503h-94.53453c-3.038785 0-5.129781 3.0505096-4.035428 5.8841028l22.102027 57.2131773c.644887 1.666935 2.247332 2.76715 4.035427 2.76715z" fill="#9da6b6"/><path d="m648.456558 74.5196964c2.745759 0 4.972091-2.2248306 4.972091-4.9705898 0-2.7457593-2.226332-4.9705899-4.972091-4.9705899-2.74576 0-4.97059 2.2248306-4.97059 4.9705899 0 2.7457592 2.22483 4.9705898 4.97059 4.9705898z" fill="#fff"/></g></g></svg>