<svg height="40" viewBox="0 0 99 40" width="99" xmlns="http://www.w3.org/2000/svg"><path d="m410.715929 60.1530973c1.489381 0 2.672124-1.1827433 2.672124-2.6721238v-7.4030974h6.088938c6.746018 0 12.265487-3.5920354 12.265487-10.469469v-.0876106c0-6.1765487-4.468142-10.2504425-11.652213-10.2504425h-9.374336c-1.533186 0-2.715929 1.1827433-2.715929 2.7159292v25.4946903c0 1.4893805 1.182743 2.6721238 2.715929 2.6721238zm8.936283-14.9376106h-6.264159v-11.038938h6.264159c4.030089 0 6.614602 1.8836283 6.614602 5.4756637v.0876106c0 3.1977876-2.540708 5.4756637-6.614602 5.4756637zm18.836284-11.739823c1.708407 0 3.022566-1.0513274 3.022566-2.6283186v-.2628318c0-1.5769912-1.314159-2.5845133-3.022566-2.5845133-1.708408 0-3.022567 1.0075221-3.022567 2.5845133v.2628318c0 1.5769912 1.314159 2.6283186 3.022567 2.6283186zm0 26.6774336c1.48938 0 2.672123-1.138938 2.672123-2.6283185v-18.3106195c0-1.4893805-1.182743-2.6721239-2.672123-2.6721239-1.489381 0-2.628319 1.1827434-2.628319 2.6721239v18.3106195c0 1.4893805 1.182743 2.6283185 2.628319 2.6283185zm26.633628 0c1.48938 0 2.628318-1.138938 2.628318-2.6283185v-12.3530974c0-5.3442478-3.022566-8.8486726-8.235398-8.8486726-3.592035 0-5.738495 1.8836284-7.227876 4.0300885v-1.138938c0-1.4893805-1.182743-2.6721239-2.672124-2.6721239-1.48938 0-2.628318 1.1827434-2.628318 2.6721239v18.3106195c0 1.4893805 1.182743 2.6283185 2.628318 2.6283185 1.489381 0 2.672124-1.138938 2.672124-2.6283185v-10.6446903c0-3.5920354 2.14646-5.7384956 5.212832-5.7384956 3.153982 0 4.95 2.0588496 4.95 5.650885v10.7323009c0 1.4893805 1.182743 2.6283185 2.672124 2.6283185zm18.223009 6.8774337c4.161504 0 7.403097-1.0075222 9.505752-3.110177 1.927434-1.9274336 2.934956-4.8185841 2.934956-8.7172567v-15.988938c0-1.4893805-1.182744-2.6721239-2.672124-2.6721239-1.445575 0-2.628319 1.1827434-2.628319 2.6283186v1.0951327c-1.796017-2.1464602-4.20531-3.9424779-8.103982-3.9424779-5.388053 0-10.513274 4.0300885-10.513274 10.8637169v.0876106c0 6.789823 5.081416 10.8199115 10.513274 10.8199115 3.811062 0 6.220354-1.7522124 8.147788-4.2491151v1.7960177c0 4.6433629-2.584514 7.0964602-7.315487 7.0964602-2.672124 0-4.993805-.6570796-7.09646-1.839823-.262832-.1314159-.569469-.2190265-.963717-.2190265-1.226549 0-2.234071 1.0075221-2.234071 2.1902654 0 1.0075222.569469 1.7522124 1.489381 2.1026549 2.803539 1.3579646 5.69469 2.0588496 8.936283 2.0588496zm.438053-13.4482301c-3.635841 0-6.570797-2.5845133-6.570797-6.3517699v-.0876106c0-3.811062 2.891151-6.35177 6.570797-6.35177s6.789823 2.5845133 6.789823 6.35177v.0876106c0 3.7672566-3.110177 6.3517699-6.789823 6.3517699zm20.150442 6.5707964c1.752213 0 3.066372-1.3141592 3.066372-3.0225663v-.4380531c0-1.7084071-1.314159-3.0225664-3.066372-3.0225664-1.796017 0-3.110177 1.3141593-3.110177 3.0225664v.4380531c0 1.7084071 1.31416 3.0225663 3.110177 3.0225663z" fill="#014bd4" transform="translate(-408 -28)"/></svg>